<?xml version="1.0" encoding="UTF-8"?>
<svg xmlns="http://www.w3.org/2000/svg" width="308" height="220" viewBox="0 0 308 220" fill="none">
  <path d="M235.334 77.4644H71.9056C68.1309 77.4644 65.0605 80.5325 65.0605 84.3094V135.155C65.0605 138.93 68.1287 142 71.9056 142H235.308C239.083 142 242.153 138.932 242.153 135.155V84.2831C242.153 80.5061 239.111 77.4644 235.334 77.4644Z" fill="#004E9A"></path>
  <path d="M236.435 108.87C236.435 112.644 233.365 115.715 229.59 115.715H77.6771C73.9023 115.715 70.832 112.647 70.832 108.87V90.0747C70.832 86.3 73.8738 83.2582 77.6486 83.2582H229.588C233.363 83.2582 236.433 86.3263 236.433 90.1033L236.435 108.87Z" fill="white"></path>
  <path d="M162.855 130.924C163.426 131.521 164.133 131.793 164.947 131.793C165.654 131.793 166.251 131.575 166.795 131.141C166.986 131.005 167.175 130.95 167.392 130.95C167.554 130.95 167.69 130.976 167.8 131.031C167.908 131.086 168.017 131.141 168.099 131.248C168.208 131.358 168.261 131.466 168.342 131.575C168.397 131.712 168.423 131.848 168.423 131.984C168.423 132.256 168.314 132.499 168.125 132.717C167.148 133.505 166.088 133.884 164.921 133.884C163.536 133.884 162.34 133.395 161.363 132.418C160.387 131.442 159.897 130.245 159.897 128.861C159.897 127.476 160.387 126.28 161.363 125.303C162.342 124.324 163.536 123.837 164.921 123.837C166.115 123.837 167.175 124.217 168.125 125.005C168.287 125.167 168.452 125.384 168.452 125.738C168.452 125.874 168.426 126.01 168.371 126.146C168.316 126.253 168.235 126.363 168.153 126.471C168.072 126.552 167.962 126.633 167.829 126.688C167.449 126.824 167.067 126.769 166.742 126.497C166.499 126.306 166.226 126.144 165.928 126.036C165.63 125.929 165.303 125.874 164.951 125.874C164.137 125.874 163.43 126.146 162.86 126.743C162.289 127.313 161.991 127.992 161.991 128.834C161.991 129.677 162.256 130.353 162.855 130.924ZM146.069 125.573C145.878 125.764 145.608 125.872 145.336 125.872H143.488V132.824C143.488 133.096 143.38 133.368 143.189 133.557C142.998 133.748 142.755 133.856 142.456 133.856C142.184 133.856 141.914 133.748 141.723 133.557C141.532 133.366 141.425 133.096 141.425 132.824V125.872H139.577C139.305 125.872 139.061 125.764 138.844 125.573C138.653 125.382 138.545 125.112 138.545 124.84C138.545 124.568 138.653 124.296 138.844 124.107C139.035 123.916 139.305 123.809 139.577 123.809H145.336C145.608 123.809 145.878 123.916 146.069 124.107C146.26 124.298 146.367 124.568 146.367 124.84C146.367 125.139 146.286 125.382 146.069 125.573ZM178.881 125.573C178.69 125.764 178.446 125.872 178.148 125.872H176.3V132.824C176.3 133.096 176.19 133.368 176.001 133.557C175.81 133.748 175.541 133.856 175.268 133.856C174.996 133.856 174.724 133.748 174.535 133.557C174.344 133.366 174.237 133.123 174.237 132.824V125.872H172.389C172.117 125.872 171.845 125.764 171.656 125.573C171.467 125.382 171.358 125.112 171.358 124.84C171.358 124.568 171.467 124.296 171.656 124.107C171.847 123.916 172.119 123.809 172.389 123.809H178.148C178.42 123.809 178.692 123.916 178.881 124.107C179.07 124.298 179.179 124.542 179.179 124.84C179.179 125.139 179.07 125.382 178.881 125.573ZM196.561 133.858H194.796C194.66 133.858 194.524 133.832 194.388 133.777C194.278 133.722 194.145 133.641 194.061 133.559C193.98 133.478 193.899 133.368 193.844 133.232C193.789 133.096 193.763 132.96 193.763 132.824V124.84C193.763 124.704 193.789 124.568 193.844 124.432C193.899 124.322 193.98 124.188 194.061 124.105C194.142 124.024 194.252 123.942 194.388 123.888C194.524 123.833 194.66 123.806 194.796 123.806H196.561C197.946 123.806 199.142 124.296 200.118 125.272C200.608 125.762 200.987 126.304 201.231 126.901C201.475 127.498 201.611 128.123 201.611 128.83C201.584 130.215 201.095 131.411 200.116 132.387C199.142 133.368 197.948 133.858 196.561 133.858ZM117.848 130.3V132.826C117.848 133.099 117.738 133.371 117.549 133.559C117.17 133.939 116.489 133.939 116.083 133.559C115.892 133.368 115.785 133.099 115.785 132.826V124.842C115.785 124.706 115.811 124.57 115.866 124.434C115.921 124.324 115.974 124.217 116.083 124.107C116.191 124 116.301 123.945 116.408 123.89C116.518 123.835 116.652 123.809 116.816 123.809H119.044C119.478 123.809 119.913 123.89 120.321 124.052C120.701 124.215 121.054 124.46 121.353 124.759C121.651 125.057 121.868 125.411 122.059 125.79C122.222 126.17 122.331 126.605 122.331 127.039C122.331 127.338 122.305 127.61 122.224 127.882C122.143 128.154 122.033 128.424 121.897 128.67C121.761 128.913 121.572 129.131 121.355 129.348C121.245 129.458 121.111 129.565 121.001 129.646L122.632 132.227C122.74 132.416 122.794 132.607 122.794 132.798C122.713 132.989 122.687 133.125 122.632 133.232C122.577 133.342 122.496 133.45 122.415 133.559C122.305 133.667 122.198 133.722 122.088 133.777C121.952 133.832 121.844 133.858 121.68 133.858C121.326 133.858 121.028 133.695 120.811 133.368L118.91 130.3H117.848ZM134.797 132.392C133.82 133.371 132.624 133.858 131.239 133.858C129.855 133.858 128.659 133.368 127.682 132.392C126.703 131.415 126.216 130.219 126.216 128.834C126.216 127.449 126.705 126.253 127.682 125.277C128.659 124.298 129.855 123.811 131.239 123.811C132.624 123.811 133.82 124.3 134.797 125.277C135.286 125.766 135.666 126.308 135.91 126.905C136.155 127.502 136.289 128.128 136.289 128.834C136.263 130.217 135.776 131.413 134.797 132.392ZM156.037 133.858H150.713C150.576 133.858 150.44 133.832 150.304 133.777C150.168 133.722 150.061 133.641 149.98 133.559C149.898 133.478 149.817 133.368 149.762 133.232C149.707 133.096 149.681 132.989 149.681 132.824V124.84C149.681 124.704 149.707 124.568 149.762 124.432C149.817 124.322 149.87 124.215 149.98 124.105C150.087 123.997 150.197 123.942 150.304 123.888C150.44 123.833 150.576 123.806 150.713 123.806H156.037C156.309 123.806 156.579 123.914 156.77 124.105C156.961 124.296 157.068 124.566 157.068 124.838C157.068 125.11 156.958 125.38 156.77 125.571C156.579 125.762 156.309 125.869 156.037 125.869H151.746V127.798H154.707C154.979 127.798 155.249 127.908 155.44 128.097C155.631 128.288 155.738 128.558 155.738 128.83C155.738 129.102 155.631 129.374 155.44 129.563C155.249 129.754 154.979 129.861 154.707 129.861H151.746V131.791H156.037C156.309 131.791 156.579 131.898 156.77 132.089C156.961 132.28 157.068 132.55 157.068 132.822C157.068 133.094 156.958 133.366 156.77 133.555C156.581 133.748 156.309 133.858 156.037 133.858ZM189.038 133.858H183.713C183.577 133.858 183.441 133.832 183.305 133.777C183.169 133.722 183.062 133.641 182.978 133.559C182.897 133.478 182.816 133.368 182.761 133.232C182.706 133.096 182.68 132.989 182.68 132.824V124.84C182.68 124.704 182.706 124.568 182.761 124.432C182.816 124.322 182.871 124.215 182.978 124.105C183.088 123.997 183.195 123.942 183.305 123.888C183.441 123.833 183.577 123.806 183.713 123.806H189.038C189.31 123.806 189.582 123.914 189.771 124.105C189.959 124.296 190.069 124.566 190.069 124.838C190.069 125.11 189.959 125.38 189.771 125.571C189.58 125.762 189.308 125.869 189.038 125.869H184.747V127.798H187.708C187.98 127.798 188.252 127.908 188.441 128.097C188.632 128.288 188.739 128.558 188.739 128.83C188.739 129.102 188.629 129.374 188.441 129.563C188.252 129.754 187.98 129.861 187.708 129.861H184.747V131.791H189.038C189.31 131.791 189.582 131.898 189.771 132.089C189.959 132.28 190.069 132.55 190.069 132.822C190.069 133.094 189.959 133.366 189.771 133.555C189.582 133.748 189.31 133.858 189.038 133.858ZM107.744 130.735V132.8C107.744 133.072 107.636 133.344 107.445 133.533C107.254 133.722 106.984 133.832 106.712 133.832C106.44 133.832 106.168 133.722 105.979 133.533C105.788 133.342 105.681 133.099 105.681 132.8V124.842C105.681 124.706 105.707 124.57 105.762 124.434C105.817 124.324 105.872 124.217 105.979 124.107C106.089 124 106.196 123.945 106.306 123.89C106.442 123.835 106.578 123.809 106.714 123.809H108.479C108.777 123.809 109.104 123.863 109.403 123.945C109.701 124.026 109.973 124.162 110.246 124.298C110.489 124.46 110.735 124.625 110.952 124.842C111.169 125.06 111.36 125.303 111.494 125.549C111.657 125.821 111.766 126.091 111.848 126.363C111.929 126.662 111.984 126.96 111.984 127.287C111.929 128.237 111.604 129.052 110.924 129.732C110.246 130.41 109.429 130.737 108.479 130.737H107.744V130.735ZM196.561 125.872H195.828V131.793H196.561C197.375 131.793 198.055 131.521 198.652 130.924C198.951 130.625 199.168 130.298 199.304 129.973C199.44 129.649 199.521 129.24 199.521 128.832C199.521 128.018 199.249 127.338 198.652 126.741C198.055 126.17 197.377 125.872 196.561 125.872ZM131.266 125.872C130.858 125.872 130.478 125.953 130.125 126.089C129.798 126.225 129.473 126.442 129.174 126.741C128.876 127.039 128.659 127.338 128.523 127.691C128.386 128.016 128.305 128.398 128.305 128.832C128.305 129.675 128.577 130.353 129.174 130.924C129.745 131.521 130.452 131.793 131.266 131.793C132.08 131.793 132.787 131.521 133.357 130.924C133.928 130.353 134.226 129.646 134.226 128.832C134.226 128.018 133.954 127.338 133.357 126.741C132.76 126.17 132.082 125.872 131.266 125.872ZM108.45 125.872H107.717V128.696H108.45C108.639 128.696 108.83 128.67 108.992 128.589C109.155 128.507 109.319 128.426 109.453 128.29C109.589 128.154 109.697 128.018 109.752 127.827C109.833 127.665 109.861 127.474 109.861 127.285C109.861 127.096 109.835 126.905 109.752 126.741C109.671 126.552 109.589 126.416 109.453 126.28C109.317 126.144 109.181 126.062 108.992 125.981C108.832 125.9 108.641 125.872 108.45 125.872ZM119.018 125.9H117.821V128.29H119.018C119.18 128.29 119.342 128.262 119.478 128.209C119.641 128.154 119.751 128.073 119.858 127.965C119.966 127.858 120.049 127.722 120.13 127.586C120.185 127.449 120.211 127.287 120.211 127.125C120.211 126.962 120.185 126.8 120.13 126.664C120.049 126.473 119.968 126.339 119.858 126.229C119.748 126.122 119.614 126.038 119.478 125.986C119.342 125.926 119.18 125.9 119.018 125.9Z" fill="white"></path>
  <path d="M127.015 103.431C126.038 103.431 125.222 103.133 124.489 102.536V106.122C124.489 106.339 124.407 106.53 124.271 106.666C124.135 106.802 123.944 106.883 123.727 106.883C123.51 106.883 123.319 106.802 123.185 106.666C123.049 106.53 122.968 106.339 122.968 106.122V99.3865C122.968 98.2717 123.347 97.3214 124.162 96.5335C124.95 95.7456 125.9 95.366 127.012 95.366C128.125 95.366 129.078 95.7456 129.863 96.5335C130.243 96.9132 130.541 97.3477 130.759 97.8371C130.95 98.3265 131.057 98.8423 131.057 99.3865C131.057 100.499 130.649 101.452 129.89 102.237C129.481 102.646 129.047 102.944 128.586 103.133C128.075 103.35 127.559 103.431 127.015 103.431ZM124.489 99.4107C124.489 99.764 124.544 100.089 124.677 100.387C124.813 100.686 124.976 100.958 125.222 101.202C125.439 101.419 125.711 101.61 126.01 101.744C126.308 101.88 126.661 101.935 127.015 101.935C127.368 101.935 127.693 101.88 127.994 101.744C128.292 101.608 128.564 101.419 128.808 101.202C129.025 100.984 129.216 100.712 129.352 100.387C129.488 100.089 129.543 99.7618 129.543 99.4107C129.543 99.0574 129.488 98.7325 129.352 98.4319C129.216 98.1334 129.054 97.8613 128.808 97.6177C128.59 97.3741 128.318 97.2095 127.994 97.0756C127.695 96.9395 127.368 96.8847 127.015 96.8847C126.661 96.8847 126.337 96.9395 126.01 97.0756C125.711 97.2117 125.439 97.4004 125.222 97.6177C125.004 97.8349 124.813 98.1071 124.677 98.4319C124.544 98.7325 124.489 99.0574 124.489 99.4107Z" fill="#008453"></path>
  <path d="M133.861 96.1253V96.2614C134.214 95.9629 134.62 95.7457 135.028 95.6096C135.463 95.4472 135.897 95.3923 136.387 95.3923C136.604 95.3923 136.821 95.4187 137.065 95.4472C137.308 95.4757 137.526 95.5284 137.743 95.6096C137.96 95.6908 138.123 95.772 138.259 95.9081C138.395 96.0441 138.45 96.2065 138.45 96.4238C138.45 96.5313 138.421 96.6411 138.395 96.7223C138.34 96.8035 138.287 96.8847 138.232 96.9659C138.177 97.0471 138.096 97.102 137.986 97.1283C137.905 97.1546 137.798 97.1832 137.688 97.1832C137.607 97.1832 137.497 97.1568 137.363 97.102C137.065 96.9944 136.738 96.911 136.384 96.911C136.031 96.911 135.706 96.9659 135.408 97.102C135.109 97.238 134.837 97.4004 134.594 97.6462C134.376 97.8635 134.185 98.1356 134.049 98.4604C133.913 98.7589 133.861 99.0859 133.861 99.4393V102.725C133.861 102.942 133.779 103.104 133.643 103.24C133.507 103.376 133.316 103.458 133.128 103.458C132.91 103.458 132.748 103.376 132.585 103.24C132.449 103.104 132.368 102.916 132.368 102.725V96.1517C132.368 95.9344 132.449 95.772 132.585 95.6359C132.721 95.4999 132.91 95.4187 133.128 95.4187C133.345 95.4187 133.507 95.4999 133.643 95.6359C133.779 95.7435 133.861 95.9344 133.861 96.1253Z" fill="#008453"></path>
  <path d="M146.817 99.4107C146.817 100.523 146.409 101.476 145.65 102.262C144.862 103.049 143.912 103.429 142.799 103.429C141.684 103.429 140.734 103.021 139.946 102.262C139.158 101.474 138.778 100.523 138.778 99.4107C138.778 98.298 139.158 97.3456 139.946 96.5599C140.734 95.772 141.684 95.3923 142.799 95.3923C143.912 95.3923 144.864 95.772 145.65 96.5599C146.029 96.9681 146.328 97.3741 146.519 97.8635C146.708 98.3244 146.817 98.8686 146.817 99.4107ZM142.768 96.8847C142.415 96.8847 142.09 96.9396 141.763 97.0756C141.465 97.2117 141.192 97.4004 140.975 97.6177C140.758 97.835 140.567 98.1071 140.433 98.4319C140.297 98.7304 140.242 99.0574 140.242 99.4107C140.242 99.7641 140.297 100.089 140.433 100.387C140.569 100.686 140.732 100.958 140.975 101.202C141.192 101.419 141.465 101.61 141.763 101.744C142.062 101.88 142.415 101.935 142.768 101.935C143.122 101.935 143.449 101.88 143.747 101.744C144.045 101.608 144.318 101.419 144.561 101.202C144.778 100.984 144.969 100.712 145.103 100.387C145.239 100.089 145.294 99.7619 145.294 99.4107C145.294 99.0574 145.239 98.7326 145.103 98.4319C144.967 98.1334 144.778 97.8613 144.561 97.6177C144.344 97.3741 144.072 97.2095 143.747 97.0756C143.449 96.9396 143.122 96.8847 142.768 96.8847Z" fill="#008453"></path>
  <path d="M152.14 103.431C151.163 103.431 150.32 103.133 149.614 102.536V106.122C149.614 106.339 149.532 106.53 149.396 106.666C149.26 106.802 149.069 106.883 148.852 106.883C148.635 106.883 148.444 106.802 148.31 106.666C148.174 106.53 148.093 106.339 148.093 106.122V99.3865C148.093 98.2717 148.472 97.3214 149.26 96.5335C150.048 95.7456 150.998 95.366 152.111 95.366C153.224 95.366 154.176 95.7456 154.962 96.5335C155.342 96.9132 155.64 97.3477 155.857 97.8371C156.048 98.3265 156.156 98.8423 156.156 99.3865C156.156 100.499 155.776 101.452 154.96 102.237C154.552 102.646 154.117 102.944 153.656 103.133C153.2 103.35 152.684 103.431 152.14 103.431ZM149.614 99.4107C149.614 99.764 149.669 100.089 149.805 100.387C149.941 100.686 150.103 100.958 150.347 101.202C150.564 101.419 150.836 101.61 151.135 101.744C151.433 101.88 151.786 101.935 152.14 101.935C152.493 101.935 152.82 101.88 153.119 101.744C153.417 101.608 153.689 101.419 153.933 101.202C154.15 100.984 154.341 100.712 154.475 100.387C154.611 100.089 154.666 99.7618 154.666 99.4107C154.666 99.0574 154.611 98.7325 154.475 98.4319C154.339 98.1334 154.176 97.8613 153.933 97.6177C153.715 97.3741 153.443 97.2095 153.119 97.0756C152.82 96.9395 152.493 96.8847 152.14 96.8847C151.786 96.8847 151.462 96.9395 151.135 97.0756C150.836 97.2117 150.564 97.4004 150.347 97.6177C150.129 97.8349 149.938 98.1071 149.805 98.4319C149.669 98.7325 149.614 99.0574 149.614 99.4107Z" fill="#008453"></path>
  <path d="M163.576 101.177C163.793 101.177 163.984 101.259 164.118 101.395C164.254 101.531 164.335 101.72 164.335 101.937C164.335 102.154 164.254 102.316 164.118 102.481C163.385 103.133 162.489 103.458 161.484 103.458C160.372 103.458 159.419 103.049 158.633 102.29C157.845 101.502 157.466 100.552 157.466 99.4393C157.466 98.3266 157.845 97.3741 158.633 96.5884C159.421 95.8006 160.372 95.4209 161.484 95.4209C162.597 95.4209 163.549 95.8006 164.335 96.5884C164.743 96.9681 165.013 97.4027 165.23 97.8921C165.421 98.3815 165.529 98.8972 165.529 99.4393C165.529 99.6566 165.448 99.8475 165.312 99.9814C165.176 100.117 164.985 100.199 164.767 100.199H159.064C159.145 100.471 159.254 100.714 159.417 100.932C159.579 101.149 159.77 101.34 159.987 101.502C160.205 101.665 160.451 101.774 160.694 101.856C160.938 101.937 161.21 101.992 161.508 101.992C161.835 101.992 162.105 101.937 162.377 101.856C162.65 101.746 162.893 101.612 163.11 101.421C163.222 101.23 163.385 101.177 163.576 101.177ZM163.901 98.6514C163.819 98.3793 163.71 98.1357 163.547 97.9184C163.385 97.7011 163.194 97.5102 162.977 97.3478C162.759 97.1854 162.516 97.0757 162.27 96.9945C162.026 96.9133 161.754 96.8584 161.482 96.8584C161.21 96.8584 160.94 96.9133 160.694 96.9945C160.422 97.0757 160.205 97.2117 159.987 97.3478C159.77 97.5102 159.579 97.7011 159.417 97.9184C159.254 98.1357 159.145 98.3793 159.064 98.6514H163.901Z" fill="#008453"></path>
  <path d="M168.327 96.1253V96.2614C168.68 95.9629 169.086 95.7457 169.495 95.6096C169.929 95.4472 170.364 95.3923 170.853 95.3923C171.07 95.3923 171.288 95.4187 171.531 95.4472C171.775 95.4757 171.992 95.5284 172.209 95.6096C172.427 95.6908 172.589 95.772 172.725 95.9081C172.861 96.0441 172.916 96.2065 172.916 96.4238C172.916 96.5313 172.89 96.6411 172.861 96.7223C172.806 96.8035 172.78 96.8847 172.699 96.9659C172.618 97.0471 172.563 97.102 172.455 97.1283C172.374 97.1546 172.264 97.1832 172.157 97.1832C172.076 97.1832 171.966 97.1568 171.832 97.102C171.533 96.9944 171.206 96.911 170.853 96.911C170.5 96.911 170.175 96.9659 169.876 97.102C169.578 97.238 169.306 97.4004 169.062 97.6462C168.845 97.8635 168.654 98.1356 168.52 98.4604C168.384 98.7589 168.329 99.0859 168.329 99.4393V102.725C168.329 102.942 168.248 103.104 168.112 103.24C167.976 103.376 167.785 103.458 167.596 103.458C167.379 103.458 167.217 103.376 167.054 103.24C166.918 103.104 166.837 102.916 166.837 102.725V96.1517C166.837 95.9344 166.918 95.772 167.054 95.6359C167.19 95.4999 167.379 95.4187 167.596 95.4187C167.814 95.4187 167.976 95.4999 168.112 95.6359C168.274 95.7435 168.327 95.9344 168.327 96.1253Z" fill="#008453"></path>
  <path d="M174.793 95.4999H175.635V92.649C175.635 92.4318 175.717 92.2694 175.853 92.1333C175.989 91.9972 176.18 91.916 176.397 91.916C176.614 91.916 176.777 91.9972 176.939 92.1333C177.075 92.2694 177.156 92.4603 177.156 92.649V95.4999H178.541C178.758 95.4999 178.921 95.5811 179.057 95.7171C179.193 95.8532 179.274 96.0419 179.274 96.2329C179.274 96.4501 179.193 96.6126 179.057 96.7771C178.921 96.9132 178.73 96.9944 178.541 96.9944H177.156V100.499C177.156 101.45 177.646 101.939 178.596 101.939C178.813 101.939 178.976 102.02 179.112 102.156C179.248 102.292 179.329 102.483 179.329 102.672C179.329 102.889 179.248 103.052 179.112 103.214C178.976 103.35 178.787 103.431 178.596 103.431C176.641 103.431 175.662 102.455 175.662 100.497V96.9922H174.819C174.63 96.9922 174.439 96.911 174.303 96.775C174.167 96.6389 174.086 96.448 174.086 96.2307C174.086 96.0134 174.167 95.851 174.303 95.7149C174.413 95.5811 174.575 95.4999 174.793 95.4999Z" fill="#008453"></path>
  <path d="M183.049 102.698L180.468 96.4787C180.413 96.3711 180.387 96.2614 180.387 96.1539C180.387 96.0441 180.413 95.9629 180.442 95.8554C180.468 95.7742 180.523 95.693 180.604 95.6118C180.659 95.5306 180.74 95.4757 180.848 95.4494C180.929 95.4231 181.039 95.3945 181.146 95.3945C181.282 95.3945 181.445 95.4494 181.554 95.5306C181.69 95.6118 181.772 95.7479 181.853 95.9103L183.863 100.745L185.9 95.9103C185.955 95.7742 186.036 95.6381 186.143 95.5569C186.253 95.4757 186.415 95.4209 186.604 95.4209C186.714 95.4209 186.795 95.4472 186.903 95.4757C186.984 95.5021 187.065 95.5569 187.146 95.6381C187.227 95.7193 187.254 95.8005 187.309 95.8817C187.363 95.9629 187.363 96.0727 187.363 96.1802C187.363 96.2877 187.337 96.3975 187.282 96.505L183.154 106.447C183.099 106.583 182.992 106.719 182.856 106.8C182.72 106.881 182.584 106.936 182.421 106.936C182.204 106.936 182.013 106.855 181.879 106.719C181.743 106.583 181.662 106.394 181.662 106.177C181.662 106.067 181.688 105.96 181.743 105.85L183.049 102.698Z" fill="#008453"></path>
  <path d="M200.053 102.698C200.053 102.916 199.972 103.078 199.836 103.24C199.7 103.376 199.511 103.458 199.32 103.458C199.103 103.458 198.94 103.376 198.776 103.24C198.64 103.104 198.558 102.916 198.558 102.698V98.5965C198.558 98.3792 198.503 98.1356 198.422 97.9447C198.341 97.7274 198.205 97.565 198.069 97.4004C197.907 97.238 197.744 97.1283 197.527 97.0208C197.31 96.9396 197.092 96.8847 196.846 96.8847C196.603 96.8847 196.386 96.9396 196.195 97.0208C195.977 97.102 195.815 97.238 195.653 97.3741C195.49 97.5365 195.38 97.7011 195.273 97.9184C195.192 98.1356 195.137 98.3529 195.137 98.5702V102.672C195.137 102.889 195.056 103.052 194.92 103.214C194.784 103.35 194.593 103.431 194.404 103.431C194.187 103.431 194.024 103.35 193.862 103.214C193.726 103.078 193.645 102.889 193.645 102.672V98.5702C193.645 98.3266 193.59 98.1093 193.508 97.9184C193.427 97.7011 193.291 97.5387 193.129 97.3741C192.966 97.2117 192.804 97.102 192.587 97.0208C192.369 96.9396 192.152 96.8847 191.935 96.8847C191.691 96.8847 191.474 96.9396 191.283 97.0208C191.066 97.102 190.903 97.238 190.739 97.4004C190.576 97.5628 190.467 97.7274 190.385 97.9447C190.304 98.162 190.249 98.3792 190.249 98.5965V102.698C190.249 102.916 190.168 103.078 190.032 103.24C189.896 103.376 189.707 103.458 189.49 103.458C189.273 103.458 189.11 103.376 188.946 103.24C188.81 103.104 188.729 102.916 188.729 102.698V96.1253C188.729 95.9081 188.81 95.7457 188.946 95.6096C189.082 95.4735 189.273 95.3923 189.462 95.3923C189.624 95.3923 189.786 95.4472 189.896 95.5284C190.032 95.6096 190.113 95.7457 190.168 95.9081C190.684 95.5547 191.255 95.3923 191.906 95.3923C192.396 95.3923 192.83 95.5021 193.265 95.6645C193.699 95.8554 194.053 96.1539 194.378 96.5335C195.056 95.7742 195.872 95.3923 196.822 95.3923C197.257 95.3923 197.665 95.4735 198.071 95.6359C198.451 95.7983 198.804 96.0441 199.103 96.3141C199.401 96.6126 199.618 96.9396 199.781 97.3456C199.943 97.7252 200.024 98.1598 200.024 98.5943V102.696H200.053V102.698Z" fill="#008453"></path>
  <path d="M212.683 96.1253V96.2614C213.036 95.9629 213.445 95.7457 213.851 95.6096C214.285 95.4472 214.72 95.3923 215.209 95.3923C215.426 95.3923 215.644 95.4187 215.887 95.4472C216.131 95.4757 216.348 95.5284 216.565 95.6096C216.756 95.6908 216.945 95.8005 217.081 95.9081C217.217 96.0441 217.272 96.2065 217.272 96.4238C217.272 96.5313 217.246 96.6147 217.217 96.7223C217.162 96.8035 217.107 96.8847 217.055 96.9659C217 97.0471 216.919 97.102 216.811 97.1283C216.73 97.1546 216.62 97.1832 216.513 97.1832C216.431 97.1832 216.322 97.1568 216.186 97.102C215.887 96.9944 215.56 96.911 215.209 96.911C214.856 96.911 214.531 96.9659 214.23 97.102C213.932 97.238 213.66 97.4004 213.416 97.6462C213.199 97.8635 213.008 98.1356 212.874 98.4604C212.738 98.7589 212.683 99.0859 212.683 99.4393V102.725C212.683 102.942 212.602 103.104 212.466 103.24C212.33 103.376 212.141 103.458 211.95 103.458C211.733 103.458 211.57 103.376 211.406 103.24C211.27 103.104 211.188 102.916 211.188 102.725V96.1517C211.188 95.9344 211.27 95.772 211.406 95.6359C211.542 95.4999 211.733 95.4187 211.95 95.4187C212.167 95.4187 212.33 95.4999 212.466 95.6359C212.628 95.7435 212.683 95.9081 212.683 96.1253Z" fill="#008453"></path>
  <path d="M224.959 102.154L221.808 98.5965L223.926 96.6411C224.088 96.4787 224.143 96.2614 224.117 96.0156C224.088 95.9081 224.062 95.8247 224.007 95.7435C223.952 95.6623 223.899 95.5811 223.816 95.5262C223.735 95.4714 223.654 95.4165 223.544 95.4165C223.434 95.3902 223.353 95.3902 223.245 95.4165C223.109 95.4428 222.973 95.4977 222.866 95.6074L220.122 98.1598V92.7017C220.122 92.4845 220.041 92.3221 219.905 92.1575C219.769 92.0214 219.58 91.9402 219.389 91.9402C219.172 91.9402 219.01 92.0214 218.845 92.1575C218.709 92.2935 218.628 92.4845 218.628 92.7017V102.725C218.628 102.942 218.709 103.104 218.845 103.267C218.981 103.403 219.172 103.484 219.389 103.484C219.607 103.484 219.769 103.403 219.905 103.267C220.041 103.104 220.122 102.942 220.122 102.725V100.199L220.177 100.144L220.693 99.6544L223.897 103.267C224.033 103.403 224.196 103.458 224.413 103.458C224.521 103.458 224.63 103.431 224.711 103.403C224.793 103.376 224.874 103.322 224.955 103.24C225.01 103.159 225.065 103.078 225.117 102.997C225.144 102.916 225.172 102.806 225.172 102.698C225.148 102.481 225.093 102.29 224.959 102.154Z" fill="#008453"></path>
  <path d="M209.477 96.1253C209.477 95.908 209.396 95.7456 209.26 95.581C209.124 95.445 208.935 95.3638 208.718 95.3638C208.5 95.3638 208.338 95.445 208.173 95.581C208.037 95.7171 207.956 95.908 207.956 96.1253V96.2614C207.901 96.235 207.875 96.1802 207.82 96.1538C207.603 95.9914 207.359 95.8268 207.113 95.7193C207.032 95.693 206.951 95.6381 206.841 95.6096C206.815 95.6096 206.815 95.5832 206.786 95.5832C206.352 95.4208 205.917 95.366 205.428 95.366C204.315 95.366 203.363 95.7742 202.577 96.562C201.789 97.3499 201.381 98.3002 201.381 99.4129C201.381 100.526 201.789 101.478 202.577 102.264C203.365 103.052 204.315 103.458 205.428 103.458C205.917 103.458 206.352 103.376 206.786 103.214C207.221 103.052 207.6 102.834 207.954 102.562V102.698C207.954 102.916 208.035 103.078 208.171 103.24C208.307 103.376 208.498 103.458 208.715 103.458C208.933 103.458 209.095 103.376 209.257 103.24C209.394 103.104 209.475 102.916 209.475 102.698V99.4129V96.1253H209.477ZM207.767 100.416C207.631 100.714 207.44 100.986 207.223 101.23C207.006 101.474 206.734 101.638 206.409 101.772C206.11 101.908 205.783 101.963 205.432 101.963C205.079 101.963 204.754 101.908 204.427 101.772C204.129 101.636 203.856 101.447 203.613 101.23C203.396 101.013 203.205 100.741 203.071 100.416C202.935 100.117 202.88 99.7904 202.88 99.4392C202.88 99.0859 202.935 98.7611 203.071 98.4604C203.207 98.1619 203.369 97.8898 203.613 97.6462C203.83 97.4289 204.102 97.238 204.427 97.1019C204.725 96.9659 205.079 96.911 205.432 96.911C205.786 96.911 206.11 96.9922 206.409 97.1019C206.707 97.238 206.979 97.4289 207.223 97.6462C207.44 97.8898 207.631 98.1356 207.767 98.4604C207.903 98.7589 207.956 99.0859 207.956 99.4392C207.956 99.764 207.901 100.091 207.767 100.416Z" fill="#008453"></path>
  <path d="M117.238 103.458C117.076 103.458 116.939 103.322 116.939 103.159V92.2123C116.939 92.0499 117.076 91.9138 117.238 91.9138C117.4 91.9138 117.536 92.0499 117.536 92.2123V103.159C117.565 103.322 117.4 103.458 117.238 103.458Z" fill="#008453"></path>
  <path d="M93.362 96.1253V96.2614C93.7153 95.9629 94.1213 95.7457 94.5295 95.6096C94.9641 95.4472 95.3986 95.3923 95.888 95.3923C96.1053 95.3923 96.3226 95.4187 96.5684 95.4472C96.812 95.4757 97.0292 95.5284 97.2465 95.6096C97.4352 95.6908 97.6262 95.8005 97.7623 95.9081C97.8983 96.0441 97.9532 96.2065 97.9532 96.4238C97.9532 96.5313 97.9268 96.6147 97.8983 96.7223C97.8698 96.8035 97.8171 96.8847 97.7359 96.9659C97.681 97.0471 97.5998 97.102 97.4923 97.1283C97.4111 97.1546 97.3014 97.1832 97.1938 97.1832C97.1126 97.1832 97.0051 97.1568 96.869 97.102C96.5706 96.9944 96.2436 96.911 95.8902 96.911C95.5369 96.911 95.2121 96.9659 94.9136 97.102C94.6151 97.238 94.343 97.4004 94.0994 97.6462C93.8821 97.8635 93.6912 98.1356 93.5573 98.4604C93.4212 98.7589 93.3664 99.0859 93.3664 99.4393V102.725C93.3664 102.942 93.2852 103.104 93.1491 103.267C93.013 103.403 92.8221 103.484 92.6334 103.484C92.4161 103.484 92.2537 103.403 92.0913 103.267C91.9552 103.131 91.874 102.942 91.874 102.725V96.1517C91.874 95.9344 91.9552 95.772 92.0913 95.6074C92.2274 95.4713 92.4161 95.3901 92.6334 95.3901C92.8506 95.3901 93.013 95.4713 93.1491 95.6074C93.2808 95.7435 93.362 95.9081 93.362 96.1253Z" fill="#004E9A"></path>
  <path d="M90.1581 96.1253C90.1581 95.908 90.0769 95.7456 89.9409 95.6096C89.8048 95.4735 89.616 95.3923 89.4251 95.3923C89.2078 95.3923 89.0454 95.4735 88.8808 95.6096C88.7448 95.7456 88.6636 95.9366 88.6636 96.1253V96.2614C88.6087 96.235 88.556 96.1802 88.5012 96.1538C88.2027 95.9366 87.8757 95.7456 87.5224 95.6096C87.496 95.6096 87.496 95.6096 87.496 95.5832C87.0615 95.4208 86.6269 95.366 86.1375 95.366C85.0249 95.366 84.0724 95.7456 83.2867 96.5335C82.4988 97.3214 82.1191 98.2717 82.1191 99.3865C82.1191 100.499 82.5273 101.452 83.2867 102.237C84.0746 103.025 85.0249 103.405 86.1375 103.405C86.6269 103.405 87.0615 103.324 87.496 103.188C87.9306 103.025 88.3102 102.808 88.6636 102.536V102.672C88.6636 102.889 88.7448 103.052 88.8808 103.188C89.0169 103.324 89.2078 103.405 89.4251 103.405C89.6424 103.405 89.8048 103.324 89.9409 103.188C90.0769 103.052 90.1581 102.861 90.1581 102.672V99.3865C90.1581 99.3844 90.1581 96.1253 90.1581 96.1253ZM88.4463 100.39C88.3102 100.688 88.1478 100.96 87.9042 101.204C87.6869 101.447 87.4148 101.612 87.09 101.746C86.7915 101.882 86.4645 101.937 86.1134 101.937C85.7601 101.937 85.4331 101.882 85.1082 101.746C84.8098 101.61 84.5376 101.421 84.3204 101.204C84.1031 100.986 83.9122 100.714 83.7783 100.39C83.6422 100.091 83.5874 99.764 83.5874 99.4129C83.5874 99.0596 83.6422 98.7347 83.7783 98.4341C83.9144 98.1356 84.0768 97.8635 84.3204 97.6199C84.5376 97.4026 84.8098 97.2117 85.1082 97.0778C85.4067 96.9417 85.7601 96.8869 86.1134 96.8869C86.4667 96.8869 86.7915 96.9681 87.09 97.0778C87.3885 97.2139 87.6606 97.4026 87.9042 97.6199C88.1215 97.8371 88.3124 98.1093 88.4463 98.4341C88.5824 98.7325 88.6372 99.0596 88.6372 99.4129C88.6372 99.764 88.5824 100.091 88.4463 100.39Z" fill="#004E9A"></path>
  <path d="M111.508 96.1253C111.508 95.908 111.427 95.7456 111.29 95.6096C111.154 95.4735 110.966 95.3923 110.775 95.3923C110.557 95.3923 110.395 95.4735 110.23 95.6096C110.094 95.7456 110.013 95.9366 110.013 96.1253V96.2614C109.958 96.2065 109.906 96.1802 109.851 96.1253C109.552 95.908 109.225 95.7456 108.9 95.6096C108.874 95.6096 108.874 95.6096 108.846 95.5832C108.411 95.4208 107.977 95.366 107.487 95.366C106.372 95.366 105.422 95.7456 104.636 96.5335C103.848 97.3214 103.469 98.2717 103.469 99.3865C103.469 100.499 103.848 101.452 104.636 102.237C105.424 103.025 106.374 103.405 107.487 103.405C107.977 103.405 108.411 103.324 108.846 103.188C109.28 103.025 109.66 102.808 110.013 102.536V102.672C110.013 102.889 110.094 103.052 110.23 103.188C110.367 103.324 110.557 103.405 110.775 103.405C110.992 103.405 111.154 103.324 111.29 103.188C111.427 103.052 111.508 102.861 111.508 102.672V99.3865V96.1253ZM109.796 100.39C109.66 100.688 109.497 100.96 109.254 101.204C109.037 101.447 108.764 101.612 108.44 101.746C108.141 101.882 107.814 101.937 107.461 101.937C107.107 101.937 106.783 101.882 106.456 101.746C106.157 101.61 105.885 101.421 105.668 101.204C105.451 100.986 105.26 100.714 105.126 100.39C104.99 100.091 104.935 99.764 104.935 99.4129C104.935 99.0596 104.99 98.7347 105.126 98.4341C105.262 98.1356 105.424 97.8635 105.668 97.6199C105.885 97.4026 106.157 97.2117 106.456 97.0778C106.754 96.9417 107.107 96.8869 107.461 96.8869C107.814 96.8869 108.141 96.9681 108.44 97.0778C108.738 97.2139 109.01 97.4026 109.254 97.6199C109.471 97.8371 109.662 98.1093 109.796 98.4341C109.932 98.7325 109.987 99.0596 109.987 99.4129C110.013 99.764 109.932 100.091 109.796 100.39Z" fill="#004E9A"></path>
  <path d="M99.3115 95.3638V92.6468C99.3115 92.4296 99.3927 92.2672 99.5288 92.1311C99.6649 91.995 99.8558 91.9138 100.073 91.9138C100.29 91.9138 100.453 91.995 100.589 92.1311C100.725 92.2672 100.806 92.4581 100.806 92.6468V100.497C100.806 101.447 101.295 101.937 102.246 101.937C102.463 101.937 102.625 102.018 102.761 102.154C102.898 102.29 102.979 102.452 102.979 102.643C102.979 102.861 102.898 103.052 102.761 103.214C102.625 103.35 102.435 103.431 102.246 103.431C100.29 103.431 99.3115 102.455 99.3115 100.497V96.8583V95.3638Z" fill="#004E9A"></path>
</svg>
