<?xml version="1.0" encoding="UTF-8"?>
<svg xmlns="http://www.w3.org/2000/svg" width="308" height="220" viewBox="0 0 308 220" fill="none">
  <path d="M254.73 141.451C254.725 143.312 253.217 144.822 251.356 144.824H55.8883C54.0294 144.818 52.5239 143.31 52.5195 141.451V78.0129C52.5239 76.1541 54.0273 74.6464 55.8883 74.6398H251.356C253.217 74.6442 254.727 76.1519 254.73 78.0129V141.451Z" fill="#1F355F"></path>
  <path d="M144.089 109.087C142.443 109.087 142.118 111.435 142.118 113.656C142.118 115.89 142.425 118.219 144.089 118.219C145.778 118.219 146.059 115.89 146.059 113.65C146.059 111.435 145.715 109.087 144.089 109.087ZM144.089 120.479C140.452 120.479 138.993 117.462 138.993 113.768C138.993 110.094 140.452 107.057 144.089 107.057C147.725 107.057 149.185 110.092 149.185 113.768C149.185 117.462 147.725 120.473 144.089 120.473M162.605 120.293V113.132C162.605 112.355 162.148 111.749 161.128 111.749C160.647 111.729 160.182 111.907 159.837 112.243V120.293H156.883V113.094C156.883 112.28 156.313 111.749 155.288 111.749C154.884 111.734 154.478 111.797 154.098 111.938V120.295H151.144V110.654C152.277 110.14 153.493 109.89 155.277 109.89C156.96 109.89 157.926 110.347 158.514 110.917C159.159 110.366 160.204 109.89 161.887 109.89C164.31 109.89 165.561 111.33 165.561 113.132V120.293H162.605ZM171.811 111.591C171.443 111.571 171.076 111.648 170.747 111.817V118.508C171.039 118.616 171.35 118.666 171.66 118.658C173.157 118.658 173.8 117.33 173.8 115.039C173.802 113.05 173.383 111.591 171.811 111.591ZM171.486 120.442C169.729 120.442 168.482 120.117 167.793 119.685V105.376H170.747V110.283C171.339 110.006 171.991 109.879 172.643 109.908C175.046 109.908 176.712 111.837 176.712 114.852C176.714 118.434 174.842 120.442 171.486 120.442ZM182.885 120.479C180.006 120.479 178.604 119.402 178.604 116.937V110.077H181.558V117.15C181.558 117.883 181.959 118.489 182.96 118.489C183.386 118.508 183.809 118.423 184.193 118.239V110.083H187.147V119.691C186.202 120.168 184.799 120.486 182.885 120.486M195.011 111.716C194.747 111.637 194.473 111.6 194.197 111.604C192.568 111.604 191.943 113.006 191.943 115.109C191.943 117.326 192.606 118.596 194.102 118.596C194.412 118.618 194.723 118.568 195.011 118.447V111.716ZM194.047 120.468C190.955 120.468 189.022 118.653 189.022 115.241C189.022 111.96 190.881 109.958 193.516 109.958C194.124 109.958 194.631 110.033 195.013 110.127V105.406H197.956V119.711C197.015 120.211 195.805 120.468 194.047 120.468ZM202.578 120.479C201.531 120.51 200.497 120.255 199.587 119.74L200.337 117.861C200.719 118.168 201.419 118.449 202.159 118.449C202.916 118.449 203.43 117.98 203.43 117.334C203.43 116.645 203.072 116.27 202.121 115.895C200.243 115.151 199.83 114.11 199.83 113.046C199.83 111.306 201.195 109.903 203.243 109.903C204.514 109.903 205.383 110.153 206.186 110.643L205.46 112.333C205.014 111.993 204.468 111.806 203.908 111.802C203.131 111.802 202.732 112.271 202.732 112.866C202.732 113.542 203.245 113.924 204.046 114.262C206.013 115.094 206.463 116.064 206.463 117.253C206.46 119.04 205.001 120.479 202.578 120.479ZM219.742 120.293V113.132C219.742 112.355 219.286 111.749 218.265 111.749C217.785 111.729 217.319 111.907 216.975 112.243V120.293H214.021V113.094C214.021 112.28 213.45 111.749 212.425 111.749C212.022 111.734 211.616 111.797 211.236 111.938V120.295H208.282V110.654C209.414 110.14 210.63 109.89 212.414 109.89C214.098 109.89 215.063 110.347 215.651 110.917C216.297 110.366 217.341 109.89 219.025 109.89C221.448 109.89 222.698 111.33 222.698 113.132V120.293H219.742ZM230.165 114.909C228.38 115.078 227.222 115.497 227.222 117.126C227.222 118.315 227.911 118.829 229.087 118.829C229.456 118.84 229.824 118.77 230.165 118.623V114.909ZM228.933 120.462C225.979 120.462 224.463 119.36 224.463 117.238C224.463 114.609 227.092 113.832 230.165 113.544V113.068C230.165 112.004 229.445 111.703 228.367 111.703C227.377 111.703 226.37 112.028 225.714 112.328L225.069 110.638C225.789 110.338 227.116 109.868 228.911 109.868C231.227 109.868 232.93 110.832 232.93 113.599V119.702C232.078 120.152 230.696 120.453 228.929 120.453M240.894 120.293V113.151C240.894 112.431 240.569 111.731 239.38 111.731C238.954 111.723 238.528 111.793 238.129 111.938V120.295H235.175V110.654C236.536 110.11 237.993 109.848 239.457 109.89C242.694 109.89 243.85 111.273 243.85 113.132V120.293H240.894ZM144.106 90.3073V101.281H141.014V90.3073H138.742V88.2421H146.36V90.3073H144.106ZM153.809 101.263V94.1084C153.809 93.3139 153.451 92.6687 152.294 92.6687C151.86 92.6556 151.427 92.7543 151.043 92.9562V101.263H148.089V88.286H151.043V91.341C151.735 91.0293 152.483 90.8691 153.24 90.8713C155.801 90.8713 156.765 92.3483 156.765 94.0513V101.263H153.809ZM163.136 92.6248C161.922 92.6248 161.165 93.6629 161.257 95.7676L164.826 95.2408C164.826 93.4259 164.213 92.6248 163.136 92.6248ZM161.446 97.2116C161.659 98.7084 162.416 99.4458 163.913 99.4458C165.102 99.4458 166.015 99.1758 166.566 98.8949L167.229 100.736C166.085 101.267 164.832 101.522 163.573 101.476C160.443 101.476 158.639 99.4107 158.639 96.1494C158.639 92.9452 160.311 90.8845 163.246 90.8845C166.2 90.8845 167.696 92.8882 167.565 96.336L161.446 97.2116ZM178.121 89.8069C177.805 89.7981 177.491 89.8508 177.195 89.9561V94.6198L177.607 94.6395C179.547 94.7339 180.243 93.9197 180.243 92.21C180.243 90.5838 179.681 89.8069 178.121 89.8069ZM177.61 96.4238L177.197 96.3799V101.287H174.179V88.8237C175.112 88.3672 176.495 88.0666 178.141 88.0666C181.76 88.0666 183.162 89.9013 183.162 92.2298C183.162 94.6768 181.534 96.7815 177.61 96.4238ZM189.86 93.0001C189.237 92.717 188.526 92.6973 187.889 92.9431V101.281H184.935V91.6394C186.068 91.082 187.665 90.7813 190.413 90.913L189.86 93.0001ZM195.524 92.6863C194.216 92.6863 193.953 94.2752 193.953 96.099C193.953 97.9337 194.234 99.4348 195.524 99.4348C196.832 99.4348 197.096 97.9315 197.096 96.099C197.096 94.284 196.832 92.6863 195.524 92.6863ZM195.524 101.439C192.57 101.439 191.017 99.1846 191.017 96.1363C191.017 93.0813 192.568 90.8472 195.505 90.8472C198.478 90.8472 200.03 93.0813 200.03 96.1363C200.032 99.1846 198.478 101.439 195.524 101.439ZM205.778 92.6248C205.468 92.6161 205.161 92.6665 204.869 92.7741V99.5402C205.058 99.6148 205.319 99.6718 205.646 99.6718C207.217 99.6718 207.918 98.4384 207.918 96.1472C207.918 93.8582 207.356 92.6248 205.778 92.6248ZM206.346 101.419C205.848 101.428 205.352 101.368 204.869 101.243V105.356H201.909V91.6416C202.784 91.2027 204 90.8845 205.815 90.8845C208.87 90.8845 210.836 92.6819 210.836 96.1121C210.836 99.3909 209.002 101.419 206.346 101.419ZM216.845 92.6248C215.632 92.6248 214.875 93.6629 214.967 95.7676L218.535 95.2408C218.535 93.4259 217.921 92.6248 216.845 92.6248ZM215.155 97.2116C215.368 98.7084 216.126 99.4458 217.622 99.4458C218.812 99.4458 219.725 99.1758 220.276 98.8949L220.938 100.736C219.795 101.267 218.542 101.522 217.282 101.476C214.153 101.476 212.349 99.4107 212.349 96.1494C212.349 92.9452 214.021 90.8845 216.955 90.8845C219.909 90.8845 221.406 92.8882 221.274 96.336L215.155 97.2116ZM228.082 93.0001C227.459 92.717 226.748 92.6973 226.111 92.9431V101.281H223.157V91.6394C224.29 91.082 225.887 90.7813 228.635 90.913L228.082 93.0001ZM233.634 101.449C231.495 101.449 230.566 100.071 230.566 98.4955V93.0001H229.445V91.0842H230.566V88.9049L233.52 88.1543V91.0842H235.092V93.0001H233.52V98.2716C233.52 99.0486 233.801 99.4611 234.466 99.4611C234.716 99.4611 234.841 99.4238 235.092 99.3492V101.164C234.631 101.357 234.135 101.454 233.634 101.449ZM240.802 105.332H237.697L239.325 101.263L236.007 91.0469H239.136L240.539 96.9571C240.745 97.8327 240.745 98.5657 240.745 98.5657H240.782C240.782 98.5657 240.846 97.8261 241.063 96.9571L242.621 91.0469H245.389L240.802 105.332ZM132.038 129.495L127.743 123.185H99.5856C97.9089 123.185 96.5811 122.496 95.9556 121.307C95.3302 120.111 95.5057 118.634 96.456 117.251L110.083 97.2511L101.032 83.956C98.9404 80.8879 95.5233 80.8879 93.4384 83.956L62.3908 129.495C60.3059 132.563 61.6402 135.067 65.3448 135.067H129.088C132.802 135.065 134.123 132.561 132.038 129.495Z" fill="white"></path>
  <path d="M115.982 94.9402C116.495 94.9402 116.996 95.2541 117.391 95.8291L132.797 118.458C133.173 119.002 133.284 119.496 133.111 119.81C132.949 120.135 132.472 120.31 131.816 120.31H100.132C99.476 120.31 99.0063 120.135 98.8374 119.81C98.6684 119.496 98.7803 119.002 99.1512 118.458L111.865 99.8233L114.582 95.8356C114.977 95.2606 115.477 94.9468 115.991 94.9468M133.789 117.795L118.372 95.1597C117.861 94.3191 116.963 93.7924 115.98 93.7507C115.784 93.7551 115.591 93.7815 115.405 93.8319C114.654 94.0295 114.005 94.5035 113.59 95.1597L111.136 98.7589L98.1658 117.789C97.5337 118.721 97.3955 119.641 97.7839 120.374C98.1658 121.1 99.0041 121.5 100.132 121.5H131.812C132.775 121.5 133.502 121.193 133.947 120.655C134.022 120.56 134.11 120.479 134.167 120.374C134.555 119.641 134.417 118.721 133.785 117.789" fill="white"></path>
</svg>
