<?xml version="1.0" encoding="UTF-8"?>
<svg xmlns="http://www.w3.org/2000/svg" width="308" height="220" viewBox="0 0 308 220" fill="none">
  <path d="M241.586 111.641H244.815L244.801 101.757L235.924 94.2927L227.047 101.757L227.034 111.641H230.249L235.933 106.859L241.586 111.641ZM245.196 114.466H240.557L235.937 110.557L231.298 114.466H226.658C225.311 114.466 224.218 113.373 224.218 112.025C224.218 112.023 224.218 112.023 224.218 112.021L224.238 101.583C224.238 100.942 224.488 100.328 224.938 99.8715L225.039 99.7793L235.933 90.6189L246.935 99.8737C247.382 100.328 247.635 100.942 247.632 101.581L247.646 112.023C247.648 113.373 246.555 114.47 245.205 114.472C245.203 114.472 245.203 114.472 245.201 114.472" fill="#5CFF95"></path>
  <path d="M155.514 104.204C154.419 104.202 153.335 104.406 152.317 104.81C151.336 105.185 150.447 105.769 149.709 106.519C149.483 106.225 149.229 105.955 148.95 105.712C148.621 105.424 148.261 105.174 147.879 104.965C147.429 104.724 146.951 104.537 146.455 104.414C145.851 104.265 145.23 104.195 144.609 104.204C143.586 104.18 142.572 104.399 141.651 104.842C140.861 105.233 140.156 105.777 139.581 106.445L139.397 104.594H134.294V121.287H139.616V112.328C139.616 111.262 139.93 110.384 140.558 109.695C141.185 109.006 142.083 108.628 143.016 108.661C143.927 108.661 144.611 108.933 145.068 109.48C145.524 110.026 145.755 110.796 145.757 111.791V121.293H150.895V112.326C150.895 111.26 151.202 110.382 151.819 109.693C152.435 109.003 153.26 108.659 154.296 108.659C155.207 108.659 155.892 108.931 156.348 109.478C156.805 110.024 157.033 110.794 157.033 111.791V121.293H162.357V110.972C162.357 108.885 161.771 107.237 160.599 106.025C159.427 104.814 157.733 104.21 155.516 104.21M177.344 114.589C177.175 115.116 176.905 115.605 176.55 116.029C176.19 116.454 175.742 116.799 175.24 117.038C174.684 117.295 174.077 117.424 173.464 117.411C172.848 117.422 172.235 117.293 171.673 117.038C171.164 116.808 170.717 116.461 170.363 116.029C170.016 115.598 169.747 115.111 169.569 114.589C169.198 113.516 169.198 112.35 169.569 111.279C169.742 110.761 170.01 110.279 170.357 109.855C170.714 109.429 171.162 109.089 171.667 108.859C172.229 108.602 172.841 108.475 173.458 108.486C174.07 108.475 174.678 108.602 175.233 108.859C175.736 109.096 176.181 109.436 176.543 109.855C176.901 110.272 177.171 110.757 177.338 111.279C177.682 112.357 177.682 113.513 177.338 114.589M180.149 106.624C179.311 105.806 178.321 105.163 177.232 104.73C176.032 104.254 174.753 104.019 173.462 104.037C172.167 104.022 170.879 104.256 169.674 104.73C165.131 106.574 162.943 111.749 164.784 116.292C165.23 117.394 165.895 118.392 166.733 119.233C167.576 120.058 168.575 120.71 169.668 121.149C170.87 121.634 172.158 121.877 173.455 121.86C174.748 121.877 176.032 121.636 177.23 121.149C178.319 120.703 179.311 120.051 180.151 119.226C180.966 118.418 181.611 117.459 182.054 116.402C182.965 114.178 182.965 111.685 182.054 109.462C181.611 108.404 180.966 107.445 180.151 106.638M195.97 104.608L192.013 115.568L187.912 104.608H181.997L189.316 121.3H194.344L201.773 104.608H195.97ZM206.217 111.194C206.222 110.818 206.303 110.45 206.456 110.107C206.625 109.73 206.862 109.388 207.159 109.098C207.494 108.771 207.889 108.512 208.322 108.334C208.838 108.123 209.391 108.02 209.948 108.031C210.494 108.018 211.034 108.121 211.537 108.334C211.952 108.516 212.329 108.775 212.647 109.098C212.933 109.388 213.159 109.73 213.312 110.107C213.455 110.452 213.532 110.821 213.534 111.194H206.217ZM218.564 113.614C218.577 112.306 218.391 111.005 218.009 109.754C217.675 108.644 217.116 107.612 216.365 106.728C215.63 105.878 214.715 105.205 213.685 104.752C212.518 104.256 211.258 104.013 209.99 104.041C208.695 104.019 207.411 104.267 206.219 104.77C205.162 105.22 204.207 105.88 203.41 106.708C202.642 107.522 202.045 108.483 201.654 109.532C201.251 110.608 201.044 111.747 201.049 112.895C201.033 114.141 201.253 115.377 201.696 116.542C202.107 117.613 202.752 118.577 203.581 119.367C204.45 120.176 205.475 120.8 206.592 121.201C207.874 121.656 209.226 121.879 210.584 121.86C211.579 121.871 212.571 121.77 213.543 121.557C214.3 121.39 215.042 121.16 215.762 120.872C216.299 120.657 216.813 120.387 217.296 120.064C217.691 119.795 217.985 119.599 218.182 119.478L216.001 116.241C215.404 116.634 214.774 116.972 214.116 117.251C213.253 117.642 212.132 117.837 210.753 117.837C209.349 117.837 208.247 117.501 207.444 116.827C206.643 116.156 206.23 115.366 206.206 114.462H218.553L218.564 113.614ZM130.085 117.47C129.639 117.659 129.157 117.749 128.674 117.736C127.961 117.736 127.436 117.516 127.102 117.078C126.769 116.639 126.602 116.015 126.604 115.21V108.626H131.077V104.608H126.613V99.5511H121.289V104.608H118.554V108.63H121.289V114.929C121.278 115.888 121.39 116.845 121.622 117.775C121.82 118.581 122.2 119.329 122.733 119.964C123.286 120.596 123.984 121.083 124.767 121.388C125.759 121.759 126.813 121.934 127.873 121.904C129.648 121.904 131.382 121.357 132.839 120.343L131.158 116.88C130.82 117.113 130.462 117.315 130.089 117.486M69.7345 104.285C68.5033 104.285 67.4981 104.546 66.7234 105.068C66.0321 105.514 65.4132 106.067 64.8931 106.703L64.7066 104.608H59.6084V121.3H64.9304V113.042C64.9304 111.714 65.3189 110.687 66.0936 109.963C66.8705 109.238 67.8866 108.876 69.1441 108.876C69.6818 108.87 70.2195 108.927 70.744 109.041L71.5977 104.504C71.3827 104.439 71.161 104.388 70.9371 104.355C70.5355 104.303 70.1317 104.281 69.7257 104.285M72.9694 121.296H78.2914V104.608H72.9782L72.9694 121.296ZM92.5237 113.858C92.5237 114.951 92.2274 115.752 91.637 116.261C91.0467 116.77 90.2083 117.025 89.1242 117.025C87.9654 117.025 87.0853 116.669 86.4818 115.958C85.8783 115.247 85.5776 114.288 85.5842 113.081C85.582 112.482 85.6742 111.889 85.8607 111.321C86.0363 110.779 86.326 110.283 86.71 109.862C87.1095 109.434 87.5945 109.093 88.1322 108.865C88.7642 108.604 89.4446 108.477 90.1271 108.492C90.5836 108.486 91.0423 108.514 91.4944 108.58C91.8455 108.641 92.1923 108.729 92.5302 108.845L92.5237 113.858ZM90.1951 104.25C88.8059 104.232 87.4255 104.45 86.1109 104.891C84.9499 105.281 83.8811 105.905 82.9682 106.723C82.0991 107.518 81.4078 108.488 80.9447 109.572C80.4509 110.737 80.2073 111.99 80.2249 113.257C80.2117 114.347 80.3939 115.432 80.7626 116.461C81.0983 117.398 81.6185 118.256 82.2966 118.987C82.9835 119.713 83.8241 120.28 84.7568 120.644C85.8124 121.05 86.9361 121.25 88.0663 121.23C89.9142 121.23 91.3934 120.767 92.5039 119.843V121.017C92.5039 122.25 92.1593 123.176 91.468 123.793C90.7789 124.41 89.8286 124.719 88.6216 124.719C87.7525 124.728 86.8878 124.616 86.0517 124.381C85.2835 124.16 84.5439 123.841 83.8526 123.44L81.7085 127.072C82.6851 127.695 83.7604 128.152 84.8885 128.424C86.2228 128.729 87.5879 128.872 88.9552 128.852C91.6897 128.852 93.847 128.193 95.4228 126.877C96.9985 125.56 97.7886 123.525 97.7886 120.771V105.496C96.6452 105.115 95.4776 104.818 94.2903 104.61C92.9428 104.368 91.5756 104.25 90.2061 104.254M110.941 104.204C109.969 104.206 109.005 104.382 108.095 104.72C107.23 105.016 106.455 105.523 105.839 106.197V97.5584H100.554V121.298H105.878V112.328C105.874 111.848 105.948 111.371 106.1 110.917C106.24 110.491 106.468 110.099 106.765 109.761C107.072 109.416 107.449 109.142 107.873 108.953C108.351 108.745 108.867 108.641 109.387 108.65C110.166 108.617 110.924 108.918 111.466 109.482C111.984 110.028 112.243 110.788 112.243 111.76V121.298H117.518V110.976C117.518 108.747 116.921 107.061 115.725 105.922C114.529 104.783 112.934 104.21 110.941 104.204ZM77.6264 98.0917C77.3565 97.8678 77.047 97.6945 76.7156 97.5804C76.0287 97.3433 75.2803 97.3433 74.5934 97.5804C74.2576 97.6945 73.946 97.8678 73.6695 98.0917C73.3908 98.3178 73.1691 98.6053 73.0199 98.9323C72.8553 99.2922 72.7741 99.685 72.7806 100.08C72.7741 100.473 72.8553 100.861 73.0199 101.217C73.1735 101.542 73.3951 101.827 73.6695 102.057C73.9416 102.286 74.2554 102.459 74.5934 102.569C75.2825 102.79 76.0265 102.79 76.7156 102.569C77.0514 102.461 77.3609 102.288 77.6264 102.057C77.8964 101.825 78.1136 101.537 78.2651 101.217C78.4297 100.861 78.5131 100.471 78.5043 100.08C78.5109 99.685 78.4275 99.2922 78.2651 98.9323C78.118 98.6096 77.8986 98.3221 77.6264 98.0917Z" fill="#121934"></path>
</svg>
