<?xml version="1.0" encoding="UTF-8"?>
<svg xmlns="http://www.w3.org/2000/svg" width="308" height="220" viewBox="0 0 308 220" fill="none">
  <path d="M88.7384 138.144L87.7377 135.219H81.9877L80.9825 138.144H78.6299L83.9716 123.576H85.7515L91.0911 138.144H88.7384ZM84.9109 126.87L82.6395 133.335H87.121L84.9109 126.87Z" fill="#8CC63F"></path>
  <path d="M97.9673 132.414H94.6534V138.142H92.4434V123.574H97.9673C100.812 123.574 102.633 125.457 102.633 127.994C102.633 130.531 100.812 132.414 97.9673 132.414ZM97.8444 125.56H94.6534V130.41H97.8444C99.3784 130.41 100.423 129.53 100.423 127.996C100.423 126.46 99.3784 125.56 97.8444 125.56Z" fill="#8CC63F"></path>
  <path d="M110.121 132.414H106.807V138.142H104.597V123.574H110.121C112.965 123.574 114.786 125.457 114.786 127.994C114.786 130.531 112.965 132.414 110.121 132.414ZM109.998 125.56H106.807V130.41H109.998C111.532 130.41 112.576 129.53 112.576 127.996C112.576 126.46 111.532 125.56 109.998 125.56Z" fill="#8CC63F"></path>
  <path d="M124.792 138.144L121.722 132.006H118.959V138.144H116.749V123.576H122.396C125.159 123.576 126.919 125.356 126.919 127.831C126.919 129.918 125.65 131.248 124.013 131.698L127.369 138.144H124.792ZM122.236 125.56H118.961V130.123H122.236C123.708 130.123 124.711 129.284 124.711 127.851C124.711 126.42 123.708 125.56 122.236 125.56Z" fill="#8CC63F"></path>
  <path d="M137.991 136.711C136.988 137.714 135.7 138.265 134.144 138.265C132.588 138.265 131.319 137.714 130.316 136.711C128.886 135.278 128.905 133.662 128.905 130.858C128.905 128.055 128.886 126.44 130.316 125.007C131.319 124.004 132.588 123.451 134.144 123.451C135.7 123.451 136.988 124.004 137.991 125.007C139.422 126.44 139.383 128.055 139.383 130.858C139.383 133.662 139.424 135.278 137.991 136.711ZM136.312 126.337C135.801 125.784 135.002 125.437 134.144 125.437C133.286 125.437 132.487 125.786 131.973 126.337C131.258 127.114 131.115 127.932 131.115 130.858C131.115 133.783 131.258 134.604 131.973 135.381C132.485 135.934 133.284 136.281 134.144 136.281C135.002 136.281 135.801 135.932 136.312 135.381C137.03 134.604 137.173 133.783 137.173 130.858C137.173 127.932 137.03 127.116 136.312 126.337Z" fill="#8CC63F"></path>
  <path d="M146.443 138.142H144.724L139.936 123.574H142.227L145.582 134.174L148.938 123.574H151.271L146.443 138.142Z" fill="#8CC63F"></path>
  <path d="M152.559 138.142V123.574H161.87V125.56H154.769V129.815H160.826V131.78H154.769V136.158H161.87V138.142H152.559Z" fill="#8CC63F"></path>
  <path d="M173.063 136.772C172.142 137.694 170.812 138.144 169.297 138.144H164.182V123.576H169.297C170.812 123.576 172.142 124.028 173.063 124.945C174.639 126.523 174.536 128.65 174.536 130.759C174.536 132.864 174.639 135.197 173.063 136.772ZM171.549 126.541C170.935 125.865 170.116 125.56 169.071 125.56H166.392V136.158H169.071C170.116 136.158 170.935 135.851 171.549 135.177C172.306 134.338 172.326 132.763 172.326 130.757C172.326 128.751 172.306 127.381 171.549 126.541Z" fill="#8CC63F"></path>
  <path d="M184.869 138.267C183.354 138.267 182.044 137.714 181.041 136.711C179.61 135.278 179.63 133.662 179.63 130.86C179.63 128.055 179.61 126.44 181.041 125.007C182.044 124.004 183.354 123.451 184.869 123.451C187.548 123.451 189.554 125.027 190.065 127.932H187.814C187.467 126.46 186.486 125.435 184.869 125.435C184.008 125.435 183.231 125.762 182.72 126.315C182.005 127.092 181.84 127.932 181.84 130.858C181.84 133.783 182.005 134.622 182.72 135.401C183.231 135.951 184.008 136.281 184.869 136.281C186.486 136.281 187.487 135.256 187.836 133.783H190.065C189.576 136.691 187.509 138.267 184.869 138.267Z" fill="#8CC63F"></path>
  <path d="M200.849 136.711C199.846 137.714 198.558 138.265 197.004 138.265C195.448 138.265 194.18 137.714 193.177 136.711C191.746 135.278 191.766 133.662 191.766 130.858C191.766 128.055 191.746 126.44 193.177 125.007C194.182 124.004 195.448 123.451 197.004 123.451C198.558 123.451 199.849 124.004 200.849 125.007C202.282 126.44 202.243 128.055 202.243 130.858C202.243 133.662 202.282 135.278 200.849 136.711ZM199.173 126.337C198.661 125.784 197.862 125.437 197.004 125.437C196.144 125.437 195.345 125.786 194.834 126.337C194.118 127.114 193.976 127.932 193.976 130.858C193.976 133.783 194.118 134.604 194.834 135.381C195.345 135.934 196.142 136.281 197.004 136.281C197.862 136.281 198.661 135.932 199.173 135.381C199.888 134.604 200.033 133.783 200.033 130.858C200.031 127.932 199.888 127.116 199.173 126.337Z" fill="#8CC63F"></path>
  <path d="M213.679 136.772C212.758 137.694 211.428 138.144 209.916 138.144H204.8V123.576H209.916C211.428 123.576 212.758 124.028 213.679 124.945C215.255 126.523 215.152 128.65 215.152 130.759C215.152 132.864 215.255 135.197 213.679 136.772ZM212.165 126.541C211.551 125.865 210.732 125.56 209.689 125.56H207.008V136.158H209.689C210.734 136.158 211.553 135.851 212.165 135.177C212.922 134.338 212.942 132.763 212.942 130.757C212.942 128.751 212.922 127.381 212.165 126.541Z" fill="#8CC63F"></path>
  <path d="M217.711 138.142V123.574H227.021V125.56H219.921V129.815H225.976V131.78H219.921V136.158H227.021V138.142H217.711Z" fill="#8CC63F"></path>
  <path d="M82.4527 145.527V153.704H81.0196V145.527H78.4102V144.234H85.0621V145.527H82.4527Z" fill="#9F218B"></path>
  <path d="M91.7911 153.704L89.794 149.716H87.9988V153.704H86.5635V144.234H90.2351C92.0325 144.234 93.1737 145.391 93.1737 146.999C93.1737 148.356 92.3508 149.22 91.2885 149.512L93.4678 153.702H91.7911V153.704ZM90.1276 145.527H87.9988V148.49H90.1276C91.0866 148.49 91.7406 147.945 91.7406 147.013C91.7406 146.082 91.0888 145.527 90.1276 145.527Z" fill="#9F218B"></path>
  <path d="M100.588 153.704L99.9336 151.801H96.1961L95.5465 153.704H94.0146L97.4866 144.234H98.641L102.115 153.704H100.588ZM98.0989 146.376L96.6219 150.579H99.5342L98.0989 146.376Z" fill="#9F218B"></path>
  <path d="M109.098 152.813C108.501 153.412 107.639 153.704 106.649 153.704H103.326V144.234H106.649C107.636 144.234 108.501 144.528 109.098 145.125C110.123 146.15 110.057 147.533 110.057 148.902C110.057 150.274 110.123 151.79 109.098 152.813ZM108.117 146.163C107.713 145.724 107.184 145.527 106.506 145.527H104.764V152.416H106.506C107.187 152.416 107.713 152.218 108.117 151.777C108.611 151.231 108.62 150.206 108.62 148.902C108.62 147.601 108.611 146.71 108.117 146.163Z" fill="#9F218B"></path>
  <path d="M113.491 144.234H112.052V153.704H113.491V144.234Z" fill="#9F218B"></path>
  <path d="M121.647 153.704L117.269 147.039V153.704H115.831V144.234H117.146L121.524 150.886V144.234H122.957V153.704H121.647Z" fill="#9F218B"></path>
  <path d="M130.967 152.71C130.25 153.467 129.357 153.785 128.358 153.785C127.377 153.785 126.523 153.425 125.874 152.774C124.939 151.843 124.954 150.794 124.954 148.97C124.954 147.146 124.939 146.097 125.874 145.167C126.523 144.515 127.348 144.155 128.358 144.155C130.368 144.155 131.54 145.472 131.808 147.096H130.355C130.116 146.058 129.425 145.446 128.358 145.446C127.805 145.446 127.294 145.669 126.962 146.032C126.499 146.536 126.392 147.065 126.392 148.97C126.392 150.873 126.497 151.419 126.962 151.922C127.296 152.284 127.805 152.495 128.358 152.495C128.988 152.495 129.53 152.258 129.903 151.828C130.252 151.428 130.384 150.952 130.384 150.337V149.806H128.358V148.584H131.821V150.032C131.821 151.255 131.597 152.043 130.967 152.71Z" fill="#9F218B"></path>
  <path d="M136.665 153.783C135.243 153.783 134.215 153.452 133.313 152.534L134.268 151.591C134.959 152.284 135.721 152.497 136.689 152.497C137.927 152.497 138.642 151.966 138.642 151.046C138.642 150.634 138.526 150.289 138.271 150.061C138.032 149.837 137.793 149.741 137.235 149.664L136.114 149.501C135.344 149.396 134.733 149.13 134.319 148.744C133.856 148.305 133.627 147.708 133.627 146.938C133.627 145.288 134.826 144.155 136.794 144.155C138.043 144.155 138.923 144.476 139.735 145.233L138.818 146.139C138.232 145.579 137.551 145.406 136.755 145.406C135.638 145.406 135.023 146.045 135.023 146.881C135.023 147.225 135.128 147.535 135.383 147.761C135.62 147.974 136.006 148.132 136.447 148.2L137.525 148.36C138.403 148.492 138.897 148.707 139.292 149.065C139.814 149.517 140.069 150.195 140.069 151.007C140.071 152.747 138.642 153.783 136.665 153.783Z" fill="#9F218B"></path>
  <path d="M145.07 145.527V153.704H143.633V145.527H141.025V144.234H147.68V145.527H145.07Z" fill="#9F218B"></path>
  <path d="M153.823 153.704L153.171 151.801H149.433L148.779 153.704H147.252L150.724 144.234H151.88L155.352 153.704H153.823ZM151.334 146.376L149.859 150.579H152.776L151.334 146.376Z" fill="#9F218B"></path>
  <path d="M162.375 153.704L157.999 147.039V153.704H156.562V144.234H157.878L162.254 150.886V144.234H163.694V153.704H162.375Z" fill="#9F218B"></path>
  <path d="M171.81 152.813C171.209 153.412 170.346 153.704 169.361 153.704H166.036V144.234H169.361C170.346 144.234 171.211 144.528 171.81 145.125C172.835 146.15 172.765 147.533 172.765 148.902C172.765 150.274 172.835 151.79 171.81 152.813ZM170.823 146.163C170.423 145.724 169.892 145.527 169.214 145.527H167.471V152.416H169.214C169.892 152.416 170.423 152.218 170.823 151.777C171.316 151.231 171.332 150.206 171.332 148.902C171.332 147.601 171.316 146.71 170.823 146.163Z" fill="#9F218B"></path>
  <path d="M180.067 153.704L179.417 151.801H175.68L175.028 153.704H173.498L176.968 144.234H178.129L181.603 153.704H180.067ZM177.582 146.376L176.105 150.579H179.018L177.582 146.376Z" fill="#9F218B"></path>
  <path d="M188.037 153.704L186.04 149.716H184.243V153.704H182.81V144.234H186.481C188.274 144.234 189.418 145.391 189.418 146.999C189.418 148.356 188.595 149.22 187.528 149.512L189.71 153.702H188.037V153.704ZM186.374 145.527H184.245V148.49H186.374C187.333 148.49 187.982 147.945 187.982 147.013C187.982 146.082 187.333 145.527 186.374 145.527Z" fill="#9F218B"></path>
  <path d="M197.165 152.813C196.566 153.412 195.701 153.704 194.718 153.704H191.391V144.234H194.718C195.701 144.234 196.566 144.528 197.165 145.125C198.187 146.15 198.122 147.533 198.122 148.902C198.122 150.274 198.187 151.79 197.165 152.813ZM196.179 146.163C195.78 145.724 195.247 145.527 194.566 145.527H192.826V152.416H194.566C195.247 152.416 195.78 152.218 196.179 151.777C196.669 151.231 196.684 150.206 196.684 148.902C196.684 147.601 196.669 146.71 196.179 146.163Z" fill="#9F218B"></path>
  <path d="M202.631 153.783C201.205 153.783 200.182 153.452 199.28 152.534L200.235 151.591C200.928 152.284 201.688 152.497 202.656 152.497C203.893 152.497 204.613 151.966 204.613 151.046C204.613 150.634 204.493 150.289 204.24 150.061C204.003 149.837 203.76 149.741 203.202 149.664L202.089 149.501C201.315 149.396 200.702 149.13 200.292 148.744C199.827 148.305 199.598 147.708 199.598 146.938C199.598 145.288 200.795 144.155 202.763 144.155C204.016 144.155 204.892 144.476 205.704 145.233L204.787 146.139C204.198 145.579 203.52 145.406 202.726 145.406C201.609 145.406 200.994 146.045 200.994 146.881C200.994 147.225 201.102 147.535 201.354 147.761C201.593 147.974 201.98 148.132 202.416 148.2L203.494 148.36C204.372 148.492 204.863 148.707 205.265 149.065C205.781 149.517 206.033 150.195 206.033 151.007C206.035 152.747 204.615 153.783 202.631 153.783Z" fill="#9F218B"></path>
  <path d="M209.257 152.084H207.633V153.706H209.257V152.084Z" fill="#9F218B"></path>
  <path d="M153.625 106.754C186.398 106.754 216.864 113.301 242.234 124.526L153.625 65.6769L65.0166 124.526C90.3867 113.301 120.853 106.754 153.625 106.754Z" fill="#9F218B"></path>
  <path d="M160.209 76.8936C158.833 73.8365 157.144 71.1064 155.28 68.7954C156.564 70.6499 157.741 72.7107 158.748 74.9492C163.978 86.5545 162.88 98.3243 156.182 101.342C150.691 103.815 142.854 99.6323 137.328 91.6504C142.874 100.925 151.587 106.014 157.565 103.324C164.305 100.284 165.439 88.4967 160.209 76.8936Z" fill="white"></path>
  <path d="M145.157 81.0175H145.253C145.176 81.9765 145.139 82.9158 145.1 83.8551C145.367 83.8551 146.25 83.8354 147.132 83.7981C147.112 83.9319 147.112 84.068 147.112 84.2019C147.112 84.3358 147.112 84.4718 147.132 84.6057C146.46 84.5662 145.56 84.5662 145.1 84.5662C145.06 84.7571 144.966 87.7704 144.966 89.4383C144.966 90.8758 145.003 92.3352 146.517 92.3352C146.728 92.3352 147.132 92.2782 147.382 92.2014V92.6622C146.941 92.8159 146.383 92.9497 145.905 92.9497C144.314 92.9497 143.546 92.0499 143.546 90.5532C143.546 89.153 143.66 87.428 143.68 84.5706C143.298 84.5706 142.872 84.5706 142.376 84.6101C142.394 84.4565 142.413 84.3226 142.413 84.169C142.413 84.0351 142.394 83.9188 142.376 83.7871C142.951 83.8244 143.372 83.8442 143.642 83.8442C143.623 83.346 143.605 82.5208 143.565 81.6956L145.157 81.0175Z" fill="white"></path>
  <path d="M148.744 90.9131C149.012 91.4311 149.837 92.2365 150.911 92.2365C151.87 92.2365 152.772 91.6418 152.772 90.5115C152.772 88.1347 148.246 89.5327 148.246 86.2912C148.246 84.6233 149.396 83.3965 151.431 83.3965C152.37 83.3965 152.965 83.741 153.559 83.9342C153.347 84.2985 153.138 85.0074 153.099 85.2948H152.868C152.675 84.6803 152.045 84.1054 151.18 84.1054C150.432 84.1054 149.55 84.586 149.55 85.7162C149.55 88.2093 154.075 86.6753 154.075 89.9146C154.075 91.3718 152.752 92.9454 150.623 92.9454C149.453 92.9454 148.687 92.6184 148.147 92.3111C148.301 91.9863 148.512 91.295 148.512 90.9109H148.744V90.9131Z" fill="white"></path>
  <path d="M156.279 79.2727C156.816 79.2727 157.257 79.7138 157.257 80.2515C157.257 80.7892 156.816 81.2281 156.279 81.2281C155.741 81.2281 155.3 80.787 155.3 80.2515C155.302 79.7138 155.743 79.2727 156.279 79.2727ZM155.57 87.1734C155.57 86.0234 155.532 84.6803 155.416 83.5874C155.706 83.6444 155.991 83.6839 156.279 83.6839C156.566 83.6839 156.856 83.6466 157.141 83.5874C157.027 84.6803 156.99 86.0234 156.99 87.1734V89.1683C156.99 90.3183 157.027 91.6615 157.141 92.7544C156.856 92.6973 156.566 92.6578 156.279 92.6578C155.991 92.6578 155.704 92.6951 155.416 92.7544C155.532 91.6615 155.57 90.3183 155.57 89.1683V87.1734Z" fill="white"></path>
  <path d="M229.167 124.504V122.551H228.437V122.29H230.194V122.551H229.461V124.504H229.167Z" fill="#8CC63F"></path>
  <path d="M230.486 124.504V122.288H230.927L231.452 123.857C231.5 124.004 231.535 124.111 231.557 124.186C231.581 124.105 231.623 123.986 231.674 123.831L232.205 122.288H232.6V124.504H232.319V122.65L231.676 124.504H231.41L230.769 122.619V124.504H230.486Z" fill="#8CC63F"></path>
  <path d="M214.031 153.787C212.102 153.787 210.638 152.471 210.638 150.517V144.239H212.075V150.449C212.075 151.716 212.845 152.499 214.031 152.499C215.214 152.499 215.999 151.716 215.999 150.449V144.239H217.434V150.517C217.432 152.471 215.955 153.787 214.031 153.787Z" fill="#9F218B"></path>
  <path d="M225.32 153.706L222.66 149.038L221.064 150.956V153.706H219.627V144.239H221.064V148.999L224.934 144.239H226.692L223.619 147.945L227.012 153.706H225.32Z" fill="#9F218B"></path>
</svg>
