<?xml version="1.0" encoding="UTF-8"?>
<svg xmlns="http://www.w3.org/2000/svg" width="308" height="220" viewBox="0 0 308 220" fill="none">
  <path d="M70.1229 129.267C70.3182 129.67 70.5882 129.989 70.9305 130.228C71.2729 130.469 71.6767 130.638 72.1463 130.741C72.6138 130.845 73.112 130.895 73.6453 130.895C73.9503 130.895 74.2795 130.851 74.6395 130.766C74.9994 130.678 75.333 130.54 75.6424 130.349C75.9519 130.158 76.2108 129.914 76.4171 129.613C76.6234 129.315 76.7266 128.953 76.7266 128.529C76.7266 128.204 76.652 127.924 76.5071 127.682C76.3601 127.443 76.1691 127.243 75.9365 127.079C75.7017 126.916 75.4427 126.782 75.1618 126.679C74.8787 126.576 74.6022 126.493 74.33 126.427L71.736 125.79C71.4002 125.705 71.071 125.595 70.7506 125.466C70.4301 125.334 70.1492 125.16 69.91 124.943C69.6708 124.726 69.4777 124.458 69.3306 124.147C69.1836 123.831 69.1112 123.444 69.1112 122.988C69.1112 122.705 69.166 122.373 69.2736 121.994C69.3833 121.614 69.5852 121.254 69.8859 120.918C70.1843 120.582 70.5947 120.297 71.1171 120.062C71.6394 119.828 72.3066 119.711 73.123 119.711C73.698 119.711 74.2488 119.788 74.7689 119.939C75.2913 120.091 75.7478 120.321 76.1384 120.624C76.529 120.929 76.8429 121.307 77.0755 121.759C77.3103 122.209 77.4267 122.733 77.4267 123.332H76.3184C76.2964 122.885 76.1955 122.498 76.0177 122.165C75.8377 121.833 75.6051 121.557 75.3154 121.335C75.0257 121.111 74.6965 120.945 74.3212 120.83C73.946 120.716 73.5509 120.657 73.1383 120.657C72.7587 120.657 72.3921 120.701 72.0366 120.782C71.6833 120.863 71.3738 120.995 71.1083 121.173C70.8427 121.353 70.6277 121.59 70.4631 121.882C70.3007 122.176 70.2195 122.54 70.2195 122.975C70.2195 123.247 70.2655 123.484 70.3577 123.683C70.4499 123.883 70.5772 124.054 70.7418 124.197C70.9042 124.337 71.0929 124.452 71.3036 124.539C71.5165 124.627 71.7403 124.697 71.9796 124.752L74.8172 125.455C75.2298 125.564 75.6183 125.696 75.9826 125.854C76.3469 126.012 76.6673 126.207 76.9438 126.44C77.2226 126.675 77.4398 126.958 77.5956 127.296C77.7537 127.634 77.8327 128.04 77.8327 128.52C77.8327 128.65 77.8195 128.823 77.7932 129.041C77.7668 129.258 77.701 129.491 77.5956 129.734C77.4925 129.98 77.3455 130.226 77.1567 130.476C76.9658 130.726 76.7046 130.952 76.3732 131.152C76.0418 131.352 75.6314 131.516 75.142 131.641C74.6526 131.766 74.0667 131.828 73.3819 131.828C72.6972 131.828 72.0608 131.749 71.4748 131.591C70.8888 131.435 70.3862 131.191 69.9758 130.867C69.5633 130.54 69.245 130.123 69.0212 129.611C68.7973 129.1 68.703 128.485 68.7359 127.768H69.8442C69.8354 128.365 69.9298 128.863 70.1229 129.267Z" fill="#531F5C"></path>
  <path d="M80.0448 123.183V124.603H80.0952C80.3674 124.081 80.7229 123.672 81.1618 123.378C81.603 123.084 82.1648 122.939 82.8517 122.939C83.4048 122.939 83.9073 123.076 84.3594 123.345C84.8115 123.618 85.1122 124.03 85.2636 124.585C85.5138 124.03 85.8847 123.618 86.3719 123.345C86.8613 123.076 87.3815 122.939 87.9367 122.939C89.7956 122.939 90.7239 123.923 90.7239 125.889V131.595H89.6968V125.937C89.6968 125.242 89.5498 124.713 89.2557 124.346C88.9616 123.982 88.4459 123.8 87.7063 123.8C87.2608 123.8 86.892 123.885 86.598 124.054C86.3039 124.223 86.0713 124.449 85.8957 124.73C85.7223 125.013 85.5994 125.338 85.5292 125.7C85.4589 126.065 85.4238 126.442 85.4238 126.835V131.595H84.3967V125.889C84.3967 125.608 84.366 125.338 84.3068 125.084C84.2475 124.829 84.1487 124.605 84.0127 124.414C83.8766 124.226 83.6945 124.074 83.4662 123.967C83.238 123.857 82.9614 123.802 82.6344 123.802C82.1999 123.802 81.8202 123.881 81.502 124.039C81.1816 124.197 80.9204 124.414 80.7185 124.693C80.5166 124.967 80.3674 125.294 80.2708 125.672C80.1721 126.045 80.1238 126.455 80.1238 126.903V131.6H79.0967V123.187H80.0448" fill="#531F5C"></path>
  <path d="M97.6608 127C97.5971 127.12 97.472 127.206 97.2855 127.261C97.1011 127.316 96.9365 127.353 96.7961 127.373C96.3616 127.449 95.9117 127.517 95.4508 127.577C94.9899 127.636 94.5685 127.726 94.1867 127.847C93.807 127.965 93.4932 128.136 93.2495 128.358C93.0059 128.58 92.883 128.9 92.883 129.311C92.883 129.572 92.9335 129.802 93.0367 130.006C93.1398 130.206 93.2781 130.381 93.4537 130.526C93.627 130.671 93.8289 130.785 94.0572 130.862C94.2854 130.939 94.5181 130.976 94.7595 130.976C95.1501 130.976 95.5254 130.917 95.8853 130.796C96.243 130.676 96.5569 130.502 96.8224 130.272C97.088 130.044 97.3009 129.767 97.4589 129.44C97.6147 129.115 97.6959 128.746 97.6959 128.332V126.993H97.6608V127ZM92.5253 124.489C92.6987 124.131 92.9357 123.835 93.2342 123.607C93.5327 123.378 93.8838 123.209 94.2854 123.102C94.687 122.992 95.1326 122.939 95.622 122.939C95.9907 122.939 96.3616 122.975 96.7303 123.045C97.099 123.115 97.4325 123.249 97.7244 123.444C98.0185 123.64 98.2577 123.916 98.4421 124.267C98.6264 124.621 98.7186 125.079 98.7186 125.645V130.114C98.7186 130.526 98.9183 130.733 99.3221 130.733C99.4406 130.733 99.5504 130.711 99.6469 130.669V131.534C99.5284 131.556 99.4209 131.571 99.3287 131.584C99.2365 131.595 99.1202 131.6 98.9776 131.6C98.7164 131.6 98.5079 131.564 98.3499 131.494C98.1919 131.424 98.0712 131.321 97.9834 131.191C97.8978 131.06 97.8407 130.906 97.8122 130.726C97.7859 130.546 97.7727 130.349 97.7727 130.131H97.7398C97.5532 130.403 97.3667 130.645 97.1758 130.858C96.9848 131.071 96.7741 131.246 96.5393 131.387C96.3045 131.529 96.0389 131.637 95.7405 131.714C95.442 131.79 95.0865 131.828 94.6717 131.828C94.281 131.828 93.9145 131.782 93.5722 131.687C93.2298 131.595 92.9313 131.45 92.6746 131.248C92.4178 131.049 92.2181 130.79 92.071 130.48C91.924 130.173 91.8516 129.804 91.8516 129.381C91.8516 128.795 91.981 128.334 92.2422 128.002C92.5034 127.671 92.8479 127.419 93.2781 127.245C93.706 127.072 94.1911 126.949 94.7287 126.877C95.2686 126.806 95.8151 126.738 96.3681 126.675C96.5854 126.651 96.7763 126.624 96.9387 126.591C97.1011 126.558 97.2372 126.501 97.3448 126.42C97.4545 126.339 97.5379 126.227 97.5971 126.084C97.6564 125.946 97.6871 125.76 97.6871 125.531C97.6871 125.182 97.6301 124.897 97.5159 124.675C97.4018 124.452 97.2438 124.276 97.0441 124.147C96.8422 124.015 96.6095 123.925 96.3418 123.877C96.0763 123.828 95.7888 123.802 95.4859 123.802C94.8341 123.802 94.3008 123.958 93.8882 124.267C93.4734 124.577 93.2583 125.075 93.2364 125.76H92.2093C92.2466 125.27 92.3497 124.847 92.5253 124.489Z" fill="#531F5C"></path>
  <path d="M101.735 123.183V125.156H101.768C102.029 124.471 102.433 123.945 102.984 123.574C103.532 123.205 104.189 123.034 104.948 123.069V124.096C104.48 124.074 104.057 124.138 103.675 124.285C103.295 124.43 102.966 124.64 102.69 124.912C102.411 125.185 102.198 125.507 102.044 125.882C101.891 126.26 101.816 126.67 101.816 127.114V131.597H100.789V123.185H101.735" fill="#531F5C"></path>
  <path d="M110.25 123.183V124.048H108.538V129.721C108.538 130.059 108.584 130.322 108.677 130.511C108.769 130.702 108.999 130.807 109.37 130.829C109.664 130.829 109.956 130.812 110.25 130.781V131.646C110.096 131.646 109.945 131.65 109.794 131.661C109.642 131.672 109.489 131.679 109.337 131.679C108.652 131.679 108.174 131.545 107.902 131.279C107.63 131.011 107.5 130.52 107.511 129.804V124.048H106.043V123.183H107.511V120.655H108.538V123.183H110.25Z" fill="#531F5C"></path>
  <path d="M116.882 125.678C116.757 125.321 116.581 125.002 116.353 124.726C116.125 124.447 115.848 124.226 115.521 124.057C115.194 123.89 114.826 123.802 114.413 123.802C113.99 123.802 113.614 123.888 113.287 124.057C112.963 124.226 112.684 124.447 112.458 124.726C112.23 125 112.047 125.323 111.911 125.687C111.775 126.049 111.685 126.422 111.641 126.804H117.086C117.075 126.411 117.007 126.038 116.882 125.678ZM111.795 128.819C111.898 129.216 112.063 129.572 112.293 129.888C112.521 130.204 112.809 130.465 113.158 130.671C113.507 130.877 113.924 130.981 114.413 130.981C115.164 130.981 115.75 130.785 116.173 130.392C116.597 130.002 116.891 129.479 117.056 128.828H118.083C117.865 129.782 117.466 130.522 116.884 131.044C116.303 131.567 115.48 131.828 114.413 131.828C113.75 131.828 113.178 131.709 112.695 131.479C112.21 131.244 111.817 130.924 111.512 130.515C111.207 130.109 110.981 129.635 110.834 129.098C110.689 128.558 110.614 127.992 110.614 127.392C110.614 126.839 110.689 126.295 110.834 125.762C110.981 125.228 111.207 124.754 111.512 124.335C111.817 123.918 112.21 123.58 112.695 123.324C113.178 123.069 113.75 122.942 114.413 122.942C115.087 122.942 115.664 123.078 116.143 123.348C116.621 123.62 117.009 123.975 117.308 124.416C117.606 124.858 117.821 125.362 117.953 125.933C118.085 126.504 118.137 127.083 118.116 127.669H111.641C111.641 128.038 111.692 128.419 111.795 128.819Z" fill="#531F5C"></path>
  <path d="M120.261 123.183V125.156H120.294C120.555 124.471 120.959 123.945 121.508 123.574C122.057 123.205 122.713 123.034 123.472 123.069V124.096C123.005 124.074 122.581 124.138 122.199 124.285C121.82 124.43 121.49 124.64 121.214 124.912C120.937 125.185 120.722 125.507 120.571 125.882C120.417 126.26 120.343 126.67 120.343 127.114V131.597H119.315V123.185H120.261" fill="#531F5C"></path>
  <path d="M136.254 126.093C136.151 125.665 135.987 125.283 135.765 124.943C135.541 124.607 135.256 124.331 134.909 124.12C134.562 123.907 134.143 123.8 133.654 123.8C133.087 123.8 132.616 123.899 132.236 124.094C131.856 124.291 131.551 124.553 131.323 124.877C131.095 125.204 130.935 125.586 130.842 126.021C130.75 126.455 130.704 126.912 130.704 127.39C130.704 127.825 130.755 128.257 130.86 128.687C130.963 129.117 131.132 129.499 131.365 129.837C131.6 130.175 131.902 130.45 132.278 130.662C132.653 130.875 133.112 130.981 133.656 130.981C134.145 130.981 134.564 130.875 134.911 130.662C135.26 130.45 135.545 130.177 135.767 129.837C135.989 129.501 136.153 129.117 136.257 128.687C136.36 128.257 136.412 127.825 136.412 127.39C136.408 126.956 136.355 126.525 136.254 126.093ZM130.621 123.183V124.781H130.654C130.893 124.195 131.281 123.74 131.819 123.42C132.359 123.097 132.969 122.939 133.654 122.939C134.295 122.939 134.852 123.058 135.324 123.297C135.798 123.536 136.191 123.859 136.507 124.267C136.823 124.675 137.055 125.147 137.209 125.687C137.36 126.225 137.437 126.793 137.437 127.39C137.437 127.989 137.36 128.556 137.209 129.095C137.058 129.633 136.823 130.107 136.507 130.513C136.191 130.921 135.798 131.242 135.324 131.477C134.85 131.709 134.295 131.826 133.654 131.826C133.349 131.826 133.046 131.788 132.741 131.711C132.436 131.635 132.155 131.523 131.894 131.369C131.632 131.218 131.402 131.027 131.2 130.798C130.998 130.57 130.845 130.302 130.735 130H130.702V134.696H129.675V123.185H130.621" fill="#531F5C"></path>
  <path d="M139.605 123.183V125.156H139.638C139.899 124.471 140.303 123.945 140.852 123.574C141.401 123.205 142.057 123.034 142.816 123.069V124.096C142.349 124.074 141.925 124.138 141.545 124.285C141.166 124.43 140.837 124.64 140.558 124.912C140.281 125.185 140.066 125.507 139.915 125.882C139.761 126.26 139.684 126.67 139.684 127.114V131.597H138.657V123.185H139.605" fill="#531F5C"></path>
  <path d="M145.746 124.114C145.378 124.32 145.07 124.592 144.825 124.928C144.581 125.266 144.394 125.65 144.269 126.078C144.144 126.506 144.083 126.943 144.083 127.39C144.083 127.838 144.144 128.275 144.269 128.703C144.394 129.133 144.579 129.515 144.825 129.853C145.068 130.188 145.375 130.463 145.746 130.669C146.115 130.875 146.545 130.978 147.035 130.978C147.524 130.978 147.952 130.873 148.323 130.669C148.692 130.463 148.999 130.191 149.245 129.853C149.488 129.517 149.675 129.133 149.8 128.703C149.925 128.272 149.986 127.836 149.986 127.39C149.986 126.945 149.923 126.506 149.8 126.078C149.675 125.648 149.49 125.266 149.245 124.928C149.001 124.592 148.692 124.32 148.323 124.114C147.952 123.907 147.524 123.802 147.035 123.802C146.545 123.802 146.115 123.907 145.746 124.114ZM148.738 123.299C149.234 123.539 149.648 123.859 149.986 124.261C150.322 124.664 150.579 125.132 150.752 125.672C150.926 126.21 151.013 126.782 151.013 127.39C151.013 127.998 150.926 128.573 150.752 129.111C150.579 129.649 150.322 130.118 149.986 130.52C149.648 130.924 149.234 131.242 148.738 131.474C148.242 131.707 147.675 131.823 147.035 131.823C146.394 131.823 145.825 131.705 145.332 131.474C144.836 131.24 144.421 130.921 144.083 130.52C143.745 130.118 143.49 129.649 143.317 129.111C143.143 128.573 143.056 127.998 143.056 127.39C143.056 126.782 143.143 126.207 143.317 125.672C143.49 125.132 143.745 124.664 144.083 124.261C144.419 123.857 144.836 123.539 145.332 123.299C145.825 123.058 146.394 122.942 147.035 122.942C147.675 122.939 148.244 123.058 148.738 123.299Z" fill="#531F5C"></path>
  <path d="M158.851 126.093C158.747 125.665 158.583 125.283 158.361 124.943C158.139 124.607 157.852 124.331 157.505 124.12C157.156 123.907 156.737 123.8 156.248 123.8C155.684 123.8 155.21 123.899 154.83 124.094C154.448 124.291 154.145 124.553 153.915 124.877C153.687 125.204 153.526 125.586 153.434 126.021C153.342 126.455 153.296 126.912 153.296 127.39C153.296 127.825 153.346 128.257 153.452 128.687C153.555 129.117 153.724 129.499 153.956 129.837C154.191 130.175 154.494 130.45 154.869 130.662C155.245 130.875 155.703 130.981 156.248 130.981C156.737 130.981 157.156 130.875 157.505 130.662C157.852 130.45 158.139 130.177 158.361 129.837C158.583 129.501 158.747 129.117 158.851 128.687C158.954 128.257 159.004 127.825 159.004 127.39C159.004 126.956 158.951 126.525 158.851 126.093ZM153.215 123.183V124.781H153.248C153.487 124.195 153.875 123.74 154.413 123.42C154.948 123.097 155.561 122.939 156.245 122.939C156.886 122.939 157.444 123.058 157.916 123.297C158.387 123.536 158.782 123.859 159.099 124.267C159.415 124.675 159.647 125.147 159.801 125.687C159.954 126.225 160.029 126.793 160.029 127.39C160.029 127.989 159.952 128.556 159.801 129.095C159.649 129.633 159.415 130.107 159.099 130.513C158.782 130.921 158.39 131.242 157.916 131.477C157.444 131.709 156.886 131.826 156.245 131.826C155.943 131.826 155.638 131.788 155.333 131.711C155.027 131.635 154.747 131.523 154.483 131.369C154.222 131.218 153.992 131.027 153.792 130.798C153.59 130.57 153.436 130.302 153.327 130H153.294V134.696H152.267V123.185H153.215" fill="#531F5C"></path>
  <path d="M167.413 125.678C167.288 125.321 167.113 125.002 166.884 124.726C166.656 124.447 166.38 124.226 166.053 124.057C165.726 123.89 165.357 123.802 164.944 123.802C164.521 123.802 164.146 123.888 163.821 124.057C163.494 124.226 163.217 124.447 162.989 124.726C162.761 125 162.579 125.323 162.443 125.687C162.306 126.049 162.216 126.422 162.173 126.804H167.62C167.607 126.411 167.536 126.038 167.413 125.678ZM162.326 128.819C162.429 129.216 162.594 129.572 162.824 129.888C163.053 130.204 163.34 130.465 163.689 130.671C164.036 130.877 164.455 130.981 164.944 130.981C165.695 130.981 166.281 130.785 166.705 130.392C167.128 130.002 167.422 129.479 167.585 128.828H168.612C168.394 129.782 167.995 130.522 167.413 131.044C166.834 131.567 166.009 131.828 164.942 131.828C164.282 131.828 163.707 131.709 163.224 131.479C162.739 131.244 162.346 130.924 162.041 130.515C161.736 130.109 161.51 129.635 161.365 129.098C161.218 128.558 161.146 127.992 161.146 127.392C161.146 126.839 161.218 126.295 161.365 125.762C161.512 125.228 161.736 124.754 162.041 124.335C162.344 123.918 162.739 123.58 163.224 123.324C163.709 123.069 164.282 122.942 164.942 122.942C165.616 122.942 166.193 123.078 166.672 123.348C167.15 123.62 167.536 123.975 167.837 124.416C168.135 124.858 168.351 125.362 168.48 125.933C168.612 126.504 168.664 127.083 168.645 127.669H162.17C162.17 128.038 162.223 128.419 162.326 128.819Z" fill="#531F5C"></path>
  <path d="M170.83 123.183V125.156H170.861C171.122 124.471 171.528 123.945 172.077 123.574C172.626 123.205 173.282 123.034 174.041 123.069V124.096C173.574 124.074 173.15 124.138 172.77 124.285C172.391 124.43 172.062 124.64 171.785 124.912C171.509 125.185 171.293 125.507 171.142 125.882C170.988 126.26 170.914 126.67 170.914 127.114V131.597H169.887V123.185H170.83" fill="#531F5C"></path>
  <path d="M179.333 123.183V124.048H177.621V129.721C177.621 130.059 177.665 130.322 177.76 130.511C177.852 130.702 178.082 130.807 178.455 130.829C178.747 130.829 179.041 130.812 179.333 130.781V131.646C179.182 131.646 179.028 131.65 178.877 131.661C178.723 131.672 178.572 131.679 178.42 131.679C177.738 131.679 177.257 131.545 176.985 131.279C176.713 131.011 176.583 130.52 176.594 129.804V124.048H175.126V123.183H176.594V120.655H177.621V123.183H179.333Z" fill="#531F5C"></path>
  <path d="M181.346 123.183L184.117 130.357L186.712 123.183H187.739L184.087 132.87C183.933 133.228 183.79 133.524 183.663 133.757C183.534 133.992 183.389 134.176 183.231 134.312C183.073 134.448 182.888 134.547 182.678 134.606C182.465 134.665 182.197 134.696 181.87 134.696C181.664 134.685 181.504 134.676 181.39 134.672C181.275 134.668 181.177 134.648 181.089 134.615V133.75C181.207 133.772 181.326 133.792 181.44 133.807C181.552 133.825 181.67 133.832 181.789 133.832C182.017 133.832 182.206 133.799 182.351 133.733C182.498 133.669 182.625 133.579 182.735 133.465C182.842 133.351 182.937 133.213 183.011 133.05C183.09 132.886 183.169 132.708 183.257 132.51L183.615 131.564L180.255 123.183H181.346Z" fill="#531F5C"></path>
  <path d="M198.843 124.822C198.724 124.588 198.562 124.397 198.362 124.243C198.16 124.089 197.93 123.98 197.666 123.909C197.405 123.839 197.129 123.802 196.835 123.802C196.606 123.802 196.376 123.828 196.141 123.877C195.909 123.925 195.693 124.006 195.498 124.122C195.303 124.234 195.143 124.384 195.026 124.57C194.906 124.754 194.846 124.983 194.846 125.255C194.846 125.481 194.901 125.676 195.018 125.834C195.132 125.992 195.274 126.126 195.448 126.234C195.623 126.343 195.812 126.433 196.02 126.501C196.227 126.572 196.418 126.629 196.591 126.675L197.958 126.982C198.255 127.026 198.544 127.105 198.832 127.219C199.119 127.333 199.376 127.482 199.598 127.667C199.822 127.853 200.002 128.079 200.144 128.351C200.287 128.624 200.357 128.944 200.357 129.313C200.357 129.769 200.254 130.158 200.048 130.478C199.841 130.801 199.578 131.062 199.258 131.262C198.935 131.461 198.575 131.606 198.173 131.692C197.77 131.779 197.375 131.823 196.984 131.823C195.994 131.823 195.193 131.589 194.579 131.121C193.964 130.656 193.615 129.903 193.527 128.872H194.554C194.598 129.567 194.851 130.092 195.312 130.445C195.775 130.798 196.347 130.976 197.032 130.976C197.282 130.976 197.539 130.948 197.809 130.893C198.075 130.84 198.323 130.748 198.551 130.616C198.779 130.487 198.966 130.322 199.113 130.118C199.26 129.918 199.332 129.67 199.332 129.376C199.332 129.126 199.28 128.918 199.179 128.749C199.073 128.577 198.937 128.437 198.762 128.325C198.588 128.211 198.388 128.114 198.167 128.04C197.945 127.963 197.717 127.897 197.489 127.844L196.17 127.55C195.834 127.465 195.522 127.364 195.241 127.25C194.958 127.136 194.71 126.993 194.5 126.826C194.289 126.657 194.122 126.451 194.001 126.205C193.883 125.961 193.821 125.659 193.821 125.299C193.821 124.875 193.916 124.511 194.107 124.206C194.298 123.903 194.543 123.659 194.849 123.473C195.151 123.286 195.492 123.152 195.869 123.065C196.242 122.977 196.615 122.935 196.984 122.935C197.407 122.935 197.803 122.988 198.167 123.097C198.529 123.205 198.852 123.374 199.128 123.602C199.405 123.83 199.626 124.114 199.789 124.452C199.953 124.79 200.043 125.187 200.065 125.641H199.038C199.027 125.332 198.961 125.055 198.843 124.822Z" fill="#531F5C"></path>
  <path d="M207.618 125.678C207.492 125.321 207.317 125.002 207.086 124.726C206.858 124.447 206.582 124.226 206.257 124.057C205.932 123.89 205.561 123.802 205.149 123.802C204.725 123.802 204.352 123.888 204.025 124.057C203.698 124.226 203.421 124.447 203.193 124.726C202.965 125 202.783 125.323 202.647 125.687C202.508 126.049 202.421 126.422 202.377 126.804H207.824C207.811 126.411 207.745 126.038 207.618 125.678ZM202.53 128.819C202.633 129.216 202.8 129.572 203.029 129.888C203.257 130.204 203.546 130.465 203.893 130.671C204.242 130.877 204.659 130.981 205.149 130.981C205.897 130.981 206.487 130.785 206.909 130.392C207.332 130.002 207.626 129.479 207.789 128.828H208.816C208.599 129.782 208.199 130.522 207.618 131.044C207.036 131.567 206.211 131.828 205.146 131.828C204.486 131.828 203.909 131.709 203.428 131.479C202.943 131.244 202.55 130.924 202.245 130.515C201.94 130.109 201.714 129.635 201.569 129.098C201.424 128.558 201.35 127.992 201.35 127.392C201.35 126.839 201.424 126.295 201.569 125.762C201.716 125.228 201.94 124.754 202.245 124.335C202.548 123.918 202.943 123.58 203.428 123.324C203.911 123.069 204.486 122.942 205.146 122.942C205.82 122.942 206.397 123.078 206.876 123.348C207.354 123.62 207.743 123.975 208.041 124.416C208.342 124.858 208.552 125.362 208.684 125.933C208.816 126.504 208.868 127.083 208.847 127.669H202.375C202.375 128.038 202.427 128.419 202.53 128.819Z" fill="#531F5C"></path>
  <path d="M215.687 127C215.623 127.12 215.496 127.206 215.312 127.261C215.125 127.316 214.963 127.353 214.82 127.373C214.385 127.449 213.938 127.517 213.475 127.577C213.012 127.636 212.59 127.726 212.211 127.847C211.831 127.965 211.517 128.136 211.273 128.358C211.028 128.58 210.907 128.9 210.907 129.311C210.907 129.572 210.957 129.802 211.061 130.006C211.164 130.206 211.302 130.381 211.478 130.526C211.651 130.671 211.853 130.785 212.081 130.862C212.309 130.939 212.542 130.976 212.783 130.976C213.174 130.976 213.549 130.917 213.907 130.796C214.265 130.676 214.579 130.502 214.846 130.272C215.112 130.044 215.325 129.767 215.481 129.44C215.639 129.115 215.715 128.746 215.715 128.332V126.993H215.687V127ZM210.551 124.489C210.725 124.131 210.962 123.835 211.26 123.607C211.559 123.378 211.91 123.209 212.312 123.102C212.715 122.992 213.161 122.939 213.65 122.939C214.019 122.939 214.388 122.975 214.759 123.045C215.127 123.115 215.459 123.249 215.751 123.444C216.045 123.64 216.284 123.916 216.468 124.267C216.655 124.621 216.745 125.079 216.745 125.645V130.114C216.745 130.526 216.947 130.733 217.348 130.733C217.467 130.733 217.576 130.711 217.673 130.669V131.534C217.555 131.556 217.447 131.571 217.357 131.584C217.265 131.595 217.149 131.6 217.006 131.6C216.745 131.6 216.536 131.564 216.378 131.494C216.22 131.424 216.097 131.321 216.012 131.191C215.924 131.06 215.867 130.906 215.838 130.726C215.812 130.546 215.797 130.349 215.797 130.131H215.766C215.579 130.403 215.395 130.645 215.204 130.858C215.013 131.071 214.8 131.246 214.568 131.387C214.333 131.529 214.069 131.637 213.769 131.714C213.47 131.79 213.115 131.828 212.7 131.828C212.309 131.828 211.943 131.782 211.6 131.687C211.258 131.595 210.957 131.45 210.703 131.248C210.446 131.049 210.246 130.79 210.099 130.48C209.952 130.173 209.88 129.804 209.88 129.381C209.88 128.795 210.012 128.334 210.271 128.002C210.532 127.671 210.876 127.419 211.306 127.245C211.737 127.072 212.219 126.949 212.757 126.877C213.295 126.806 213.839 126.738 214.394 126.675C214.612 126.651 214.802 126.624 214.965 126.591C215.129 126.558 215.263 126.501 215.373 126.42C215.481 126.339 215.566 126.227 215.625 126.084C215.685 125.946 215.715 125.76 215.715 125.531C215.715 125.182 215.658 124.897 215.544 124.675C215.432 124.452 215.274 124.276 215.072 124.147C214.873 124.015 214.638 123.925 214.37 123.877C214.102 123.828 213.817 123.802 213.514 123.802C212.862 123.802 212.331 123.958 211.917 124.267C211.504 124.577 211.287 125.075 211.265 125.76H210.238C210.275 125.27 210.376 124.847 210.551 124.489Z" fill="#531F5C"></path>
  <path d="M219.747 123.183V125.156H219.777C220.039 124.471 220.445 123.945 220.993 123.574C221.542 123.205 222.198 123.034 222.957 123.069V124.096C222.49 124.074 222.066 124.138 221.685 124.285C221.303 124.43 220.976 124.64 220.699 124.912C220.423 125.185 220.208 125.507 220.056 125.882C219.902 126.26 219.828 126.67 219.828 127.114V131.597H218.801V123.185H219.747" fill="#531F5C"></path>
  <path d="M228.686 124.342C228.306 123.984 227.773 123.802 227.088 123.802C226.599 123.802 226.171 123.907 225.802 124.114C225.434 124.32 225.124 124.592 224.88 124.928C224.637 125.266 224.45 125.65 224.325 126.078C224.202 126.506 224.139 126.942 224.139 127.39C224.139 127.838 224.202 128.275 224.325 128.703C224.45 129.133 224.637 129.515 224.88 129.853C225.124 130.188 225.434 130.463 225.802 130.669C226.171 130.875 226.599 130.978 227.088 130.978C227.404 130.978 227.703 130.919 227.986 130.798C228.269 130.678 228.519 130.511 228.736 130.3C228.954 130.087 229.134 129.835 229.274 129.541C229.415 129.247 229.502 128.926 229.535 128.58H230.562C230.422 129.6 230.047 130.399 229.439 130.967C228.831 131.54 228.047 131.826 227.088 131.826C226.447 131.826 225.879 131.707 225.385 131.477C224.889 131.242 224.474 130.924 224.139 130.522C223.803 130.12 223.546 129.651 223.371 129.113C223.197 128.575 223.109 128 223.109 127.392C223.109 126.784 223.197 126.209 223.371 125.674C223.544 125.134 223.801 124.667 224.139 124.263C224.474 123.859 224.889 123.541 225.385 123.302C225.879 123.06 226.447 122.944 227.088 122.944C227.992 122.944 228.756 123.183 229.379 123.659C230.005 124.138 230.378 124.862 230.497 125.828H229.469C229.327 125.196 229.066 124.7 228.686 124.342Z" fill="#531F5C"></path>
  <path d="M232.713 119.955V124.634H232.744C232.941 124.122 233.288 123.714 233.789 123.403C234.289 123.093 234.838 122.937 235.434 122.937C236.02 122.937 236.514 123.012 236.909 123.166C237.307 123.317 237.625 123.532 237.862 123.809C238.103 124.087 238.27 124.428 238.369 124.829C238.465 125.233 238.514 125.683 238.514 126.181V131.595H237.486V126.346C237.486 125.988 237.456 125.652 237.388 125.343C237.324 125.033 237.21 124.763 237.045 124.535C236.883 124.307 236.661 124.129 236.385 123.997C236.108 123.866 235.761 123.8 235.351 123.8C234.934 123.8 234.568 123.874 234.249 124.019C233.929 124.166 233.657 124.368 233.433 124.623C233.211 124.88 233.036 125.182 232.913 125.536C232.788 125.889 232.72 126.271 232.709 126.686V131.593H231.682V119.953H232.713" fill="#531F5C"></path>
  <path d="M182.353 102.104C182.35 102.176 182.346 102.246 182.342 102.316C182.313 102.683 182.254 103.041 182.168 103.39C181.841 104.711 181.102 105.889 180.086 106.743C179.032 107.605 177.689 108.123 176.223 108.134C174.406 108.115 172.751 107.307 171.616 106.032C171.557 105.962 171.494 105.896 171.436 105.823C171.423 105.808 171.412 105.791 171.399 105.775C170.572 104.702 170.087 103.352 170.069 101.915C170.087 100.477 170.574 99.1276 171.399 98.0566C171.412 98.039 171.423 98.0237 171.436 98.0061C171.494 97.9337 171.555 97.8679 171.616 97.7976C172.753 96.5203 174.408 95.7105 176.227 95.693C177.801 95.7061 179.232 96.3075 180.314 97.2863C180.382 97.3499 180.452 97.4136 180.518 97.4816C180.56 97.5211 180.601 97.565 180.641 97.6067C180.786 97.7581 180.917 97.9227 181.045 98.0873C181.143 98.2168 181.238 98.3507 181.326 98.4868C181.343 98.5131 181.361 98.5394 181.376 98.5658C181.993 99.5468 182.35 100.706 182.357 101.921C182.357 101.981 182.355 102.042 182.353 102.104ZM184.569 91.0776C184.413 91.0776 184.264 91.0952 184.117 91.1237C184.067 91.1325 184.018 91.1501 183.97 91.1632C183.876 91.1874 183.784 91.2137 183.696 91.2488C183.639 91.273 183.584 91.2993 183.529 91.3256C183.454 91.3607 183.382 91.4003 183.312 91.4441C183.255 91.4793 183.2 91.5166 183.145 91.5561C183.086 91.6 183.031 91.646 182.976 91.6943C182.921 91.7426 182.866 91.7931 182.816 91.848C182.772 91.894 182.734 91.9445 182.695 91.995C182.645 92.0586 182.592 92.1201 182.548 92.1903C182.524 92.2276 182.504 92.2715 182.482 92.311C182.375 92.502 182.289 92.7061 182.238 92.9255C180.54 91.7668 178.494 91.082 176.289 91.082C176.267 91.082 176.243 91.0842 176.221 91.0842C176.205 91.0842 176.19 91.082 176.175 91.082C173.056 91.082 170.284 92.4251 168.34 94.543C168.311 94.5759 168.281 94.6066 168.252 94.6395C168.215 94.6812 168.18 94.7229 168.142 94.7646C166.472 96.6608 165.456 99.1429 165.456 101.877C165.456 101.891 165.456 101.904 165.456 101.915C165.456 101.928 165.456 101.941 165.456 101.954C165.456 104.687 166.474 107.173 168.142 109.067C168.18 109.109 168.215 109.153 168.252 109.194C168.281 109.225 168.311 109.256 168.34 109.289C170.284 111.409 173.058 112.752 176.175 112.752C176.19 112.752 176.205 112.75 176.221 112.75C178.462 112.741 180.524 112.054 182.232 110.886C182.476 111.955 183.428 112.752 184.569 112.752C185.897 112.752 186.97 111.677 186.97 110.351V93.4874V93.4852C186.97 92.153 185.895 91.0776 184.569 91.0776Z" fill="#5C1862"></path>
  <path d="M189.935 109.08C189.105 109.08 188.432 109.754 188.432 110.584C188.434 111.411 189.105 112.085 189.935 112.085C190.762 112.085 191.434 111.411 191.438 110.584C191.436 109.752 190.765 109.08 189.935 109.08Z" fill="#5C1862"></path>
  <path d="M216.198 109.078C215.368 109.08 214.697 109.752 214.694 110.581C214.697 111.411 215.368 112.08 216.198 112.083C217.027 112.08 217.699 111.409 217.701 110.581C217.699 109.752 217.027 109.08 216.198 109.078Z" fill="#5C1862"></path>
  <path d="M208.675 110.483C206.653 110.483 205.152 108.795 205.15 106.855C205.15 104.882 206.787 103.313 208.736 103.313C210.718 103.315 212.239 104.996 212.241 106.921C212.239 108.887 210.643 110.483 208.675 110.483ZM208.734 101.283C205.648 101.283 203.129 103.771 203.122 106.875C203.122 109.943 205.571 112.502 208.675 112.508C211.798 112.504 214.264 109.963 214.264 106.853C214.258 103.833 211.795 101.289 208.734 101.283Z" fill="#5C1862"></path>
  <path d="M201.202 108.613C200.958 108.613 200.715 108.698 200.526 108.865C200.52 108.876 200.513 108.887 200.504 108.898C200.267 109.287 199.94 109.611 199.567 109.853C199.001 110.261 198.296 110.485 197.596 110.485C197.519 110.485 197.447 110.483 197.379 110.478C196.596 110.443 195.893 110.153 195.329 109.688C195.329 109.688 195.318 109.679 195.312 109.673C195.29 109.655 195.266 109.638 195.246 109.618C194.745 109.183 194.37 108.611 194.179 107.954C194.078 107.619 194.021 107.268 194.017 106.905L194.012 106.673H194.026C194.045 106.39 194.098 106.118 194.177 105.854C194.37 105.194 194.745 104.619 195.241 104.188C195.268 104.164 195.292 104.147 195.309 104.131C195.318 104.125 195.329 104.116 195.338 104.109C195.893 103.653 196.596 103.359 197.379 103.324C197.447 103.319 197.519 103.317 197.594 103.317C198.296 103.317 198.999 103.539 199.556 103.943C199.936 104.191 200.265 104.515 200.493 104.891C200.506 104.908 200.515 104.924 200.524 104.937C200.717 105.104 200.958 105.187 201.202 105.187C201.439 105.187 201.676 105.106 201.871 104.939C202.111 104.735 202.234 104.445 202.234 104.153C202.234 104.015 202.205 103.872 202.148 103.741C201.959 103.462 201.746 103.199 201.512 102.959C201.419 102.867 201.318 102.777 201.217 102.687C200.375 101.959 199.315 101.471 198.215 101.331C198.187 101.327 198.16 101.324 198.132 101.32C198.101 101.316 198.068 101.313 198.033 101.311C197.963 101.305 197.895 101.3 197.829 101.296C197.829 101.294 197.822 101.296 197.809 101.294C197.726 101.291 197.638 101.289 197.555 101.289C196.633 101.292 195.764 101.518 194.998 101.913C194.952 101.937 194.91 101.959 194.866 101.981L194.873 101.978C193.143 102.924 191.965 104.755 191.965 106.875C191.965 106.875 191.965 106.875 191.965 106.899V107.072C192.02 109.126 193.183 110.893 194.871 111.817L194.901 111.832L194.903 111.835C194.93 111.85 194.961 111.863 194.993 111.881C195.762 112.278 196.631 112.504 197.55 112.506C197.638 112.506 197.724 112.504 197.805 112.5C197.82 112.5 197.825 112.5 197.827 112.497C197.893 112.493 197.961 112.489 198.031 112.482C198.068 112.478 198.101 112.475 198.136 112.473C198.156 112.471 198.182 112.467 198.217 112.462C199.313 112.324 200.375 111.835 201.215 111.106C201.318 111.016 201.419 110.926 201.509 110.836C201.746 110.595 201.959 110.331 202.148 110.05C202.203 109.921 202.231 109.78 202.234 109.642C202.234 109.348 202.108 109.061 201.871 108.856C201.676 108.694 201.441 108.613 201.202 108.613Z" fill="#5C1862"></path>
  <path d="M238.206 103.104C238.415 102.896 238.518 102.624 238.518 102.349C238.518 102.075 238.415 101.805 238.208 101.597C237.998 101.388 237.728 101.285 237.453 101.285C237.197 101.285 236.942 101.377 236.74 101.559L233.071 105.229L231.824 106.471V99.0465C231.824 98.4561 231.348 97.9799 230.76 97.9799C230.174 97.9799 229.695 98.4561 229.695 99.0465V111.442C229.695 111.606 229.737 111.762 229.809 111.907C229.983 112.263 230.341 112.508 230.762 112.508C231.35 112.508 231.826 112.032 231.826 111.442V107.32L236.703 112.197C236.911 112.405 237.183 112.508 237.456 112.508C237.73 112.508 238 112.405 238.208 112.197C238.417 111.988 238.52 111.718 238.52 111.444C238.52 111.17 238.417 110.898 238.208 110.691L234.578 107.059L234.416 106.897L238.206 103.104Z" fill="#5C1862"></path>
  <path d="M226.87 101.296C226.311 101.296 225.859 101.748 225.859 102.31V108.003C225.753 109.396 224.595 110.491 223.175 110.491H223.172C221.665 110.491 220.534 109.238 220.519 107.781L220.523 102.312C220.523 101.752 220.071 101.3 219.512 101.298C219.018 101.298 218.608 101.654 218.518 102.121L218.5 102.22V107.783C218.511 110.358 220.57 112.511 223.177 112.511C225.799 112.511 227.869 110.382 227.886 107.781V107.779H227.882L227.886 102.31C227.882 101.748 227.43 101.296 226.87 101.296Z" fill="#5C1862"></path>
  <path d="M106.804 101.95C106.804 98.6075 104.153 95.6886 100.733 95.6886C97.3514 95.6886 94.5094 98.4165 94.5094 101.836C94.5094 105.218 97.1232 108.137 100.619 108.137C104.036 108.137 106.804 105.369 106.804 101.95ZM89.8984 101.875C89.8984 95.8817 94.7771 91.0798 100.733 91.0798C106.65 91.0798 111.415 95.998 111.415 101.838C111.415 107.832 106.65 112.75 100.619 112.75C94.6235 112.748 89.8984 107.79 89.8984 101.875Z" fill="#5C1862"></path>
  <path d="M129.494 101.95C129.494 98.6075 126.843 95.6886 123.424 95.6886C120.044 95.6886 117.2 98.4165 117.2 101.836C117.2 105.218 119.811 108.137 123.31 108.137C126.727 108.137 129.494 105.369 129.494 101.95ZM112.589 101.875C112.589 95.8817 117.468 91.0798 123.424 91.0798C129.341 91.0798 134.105 95.998 134.105 101.838C134.105 107.832 129.341 112.75 123.31 112.75C117.316 112.748 112.589 107.79 112.589 101.875Z" fill="#5C1862"></path>
  <path d="M88.9636 105.183C88.9636 103.855 87.8882 102.782 86.5627 102.782C85.2371 102.782 84.1617 103.857 84.1617 105.183C84.1617 105.183 84.1617 105.183 84.1617 105.185V107.079V107.638H75.2471L87.6139 89.8487C87.7193 89.7214 87.8136 89.5831 87.8992 89.4405C88.1713 88.9796 88.3294 88.4463 88.3294 87.8735C88.3294 86.1661 86.9445 84.7791 85.2349 84.7791H71.1343C69.8066 84.7791 68.7334 85.8544 68.7334 87.18C68.7334 88.5078 69.8088 89.5809 71.1343 89.5809H71.1365H81.9276L69.6486 107.206L69.4467 107.494C69.236 107.836 69.0889 108.22 69.0253 108.635C68.9989 108.793 68.9836 108.955 68.9836 109.12C68.9836 109.284 69.0011 109.447 69.0253 109.605C69.2579 111.082 70.533 112.214 72.0758 112.214H88.9658V105.183H88.9636Z" fill="#5C1862"></path>
  <path d="M161.562 84.7681C160.237 84.7681 159.161 85.8434 159.161 87.169C159.161 87.169 159.161 87.169 159.161 87.1712V110.347C159.161 111.672 160.237 112.748 161.562 112.748C162.888 112.748 163.963 111.672 163.963 110.347V110.344V87.169C163.963 85.8434 162.888 84.7681 161.562 84.7681Z" fill="#5C1862"></path>
  <path d="M146.599 108.137C143.711 108.137 141.378 106.052 140.72 103.39C140.599 102.9 140.529 102.393 140.529 101.875C140.529 101.355 140.599 100.853 140.72 100.37C141.393 97.6813 143.814 95.6908 146.713 95.6908C150.209 95.6908 152.823 98.6097 152.823 101.992C152.823 105.409 149.981 108.137 146.599 108.137ZM146.715 91.0776C144.457 91.0776 142.377 91.7668 140.658 92.9431C140.656 92.9365 140.654 92.9299 140.652 92.9233C140.599 92.7039 140.513 92.4976 140.406 92.3066C140.384 92.2671 140.364 92.2254 140.34 92.1859C140.296 92.1179 140.246 92.0543 140.195 91.9906C140.156 91.9423 140.118 91.8897 140.074 91.8436C140.024 91.7887 139.971 91.7404 139.916 91.6921C139.862 91.6439 139.807 91.5956 139.747 91.5539C139.693 91.5144 139.638 91.4749 139.581 91.4419C139.51 91.3981 139.438 91.3607 139.363 91.3234C139.308 91.2971 139.254 91.2686 139.197 91.2466C139.109 91.2115 139.014 91.1852 138.922 91.161C138.874 91.1501 138.826 91.1325 138.775 91.1215C138.628 91.093 138.477 91.0754 138.321 91.0754C136.995 91.0754 135.92 92.1508 135.92 93.4764C135.92 93.4764 135.922 93.4764 135.922 93.4786H135.92V116.654C135.92 117.98 136.995 119.055 138.321 119.055C139.646 119.055 140.722 117.98 140.722 116.654C140.722 116.654 140.722 116.654 140.722 116.652V110.948C142.407 112.078 144.424 112.745 146.601 112.745C152.555 112.745 157.436 107.941 157.436 101.95C157.434 96.0353 152.709 91.0776 146.715 91.0776Z" fill="#5C1862"></path>
</svg>
